<?xml version="1.0" standalone="no"?>
<!DOCTYPE svg PUBLIC "-//W3C//DTD SVG 20010904//EN"
 "http://www.w3.org/TR/2001/REC-SVG-20010904/DTD/svg10.dtd">
<svg version="1.0" xmlns="http://www.w3.org/2000/svg"
 width="500.000000pt" height="500.000000pt" viewBox="0 0 500.000000 500.000000"
 preserveAspectRatio="xMidYMid meet">

<g transform="translate(0.000000,500.000000) scale(0.100000,-0.100000)"
fill="#000000" stroke="none">
<path d="M2380 4560 c0 -5 5 -10 11 -10 5 0 7 5 4 10 -3 6 -8 10 -11 10 -2 0
-4 -4 -4 -10z"/>
<path d="M2502 4556 c-3 -5 0 -6 6 -2 6 3 13 2 17 -4 3 -5 1 -10 -5 -10 -8 0
-7 -6 1 -21 6 -12 13 -66 16 -120 6 -98 18 -125 43 -95 8 10 7 15 -5 20 -12 4
-15 24 -15 100 0 52 4 97 10 101 5 3 6 13 3 22 -5 12 -3 14 8 8 8 -4 11 -5 7
0 -11 11 -79 12 -86 1z"/>
<path d="M2635 4560 c-3 -5 1 -10 9 -10 8 0 18 5 21 10 3 6 -1 10 -9 10 -8 0
-18 -4 -21 -10z"/>
<path d="M2760 4560 c0 -5 5 -10 10 -10 6 0 10 5 10 10 0 6 -4 10 -10 10 -5 0
-10 -4 -10 -10z"/>
<path d="M2135 4541 c-3 -5 -2 -12 3 -15 5 -3 9 1 9 9 0 17 -3 19 -12 6z"/>
<path d="M2879 4541 c9 -6 10 -10 2 -14 -8 -4 -8 -5 1 -3 20 4 21 26 1 26 -14
0 -15 -2 -4 -9z"/>
<path d="M2059 4533 c-1 -5 -1 -11 0 -15 0 -5 -3 -8 -9 -8 -5 0 -10 5 -10 11
0 6 -6 9 -12 6 -7 -2 -12 -10 -10 -16 3 -14 -15 -15 -20 -1 -6 18 -202 -52
-338 -120 -201 -101 -365 -215 -493 -342 -86 -86 -111 -119 -60 -78 21 16 28
18 35 8 6 -9 7 -6 3 9 -3 12 -1 25 6 29 8 4 9 3 5 -4 -4 -7 -3 -12 3 -12 6 0
8 -8 5 -17 -4 -12 -3 -14 3 -6 6 9 30 -9 83 -62 41 -41 68 -75 61 -75 -11 0
-9 -5 4 -20 19 -21 32 -20 19 2 -11 16 -15 42 -6 33 4 -4 7 -11 7 -17 0 -29
42 -10 113 49 92 78 92 78 71 70 -12 -4 -16 -1 -12 12 2 9 -5 25 -16 35 -11
10 -17 24 -14 32 3 9 -2 14 -13 14 -16 0 -17 -2 -4 -10 8 -5 11 -10 6 -10 -4
0 -2 -10 6 -22 29 -46 28 -66 -6 -92 -17 -13 -46 -37 -64 -54 l-33 -30 -46 42
c-25 22 -50 41 -57 41 -6 1 -10 7 -8 15 2 8 1 12 -3 8 -10 -10 -75 67 -75 89
0 21 43 67 53 57 3 -4 -4 -15 -16 -25 -12 -10 -17 -18 -11 -19 6 0 21 12 35
26 26 28 203 159 257 190 36 20 45 42 10 23 -13 -7 -45 -28 -71 -46 -27 -19
-51 -33 -53 -30 -4 4 39 35 112 80 29 18 45 22 57 15 22 -12 139 -209 133
-224 -3 -9 3 -10 22 -4 35 10 210 99 197 99 -5 1 -11 12 -11 27 -2 23 -1 24
12 7 12 -14 11 -9 -1 22 -9 22 -21 45 -27 50 -7 7 -7 2 1 -12 18 -35 13 -41
-9 -8 -16 25 -20 27 -26 11 -6 -17 3 -43 28 -78 7 -9 8 -21 4 -25 -5 -4 -11
-3 -13 4 -3 8 -22 4 -61 -14 -64 -28 -93 -49 -52 -39 l25 7 -25 -15 c-28 -16
-65 -4 -56 20 3 7 -13 45 -34 83 -22 39 -40 75 -40 81 0 5 -5 10 -12 10 -38 0
85 68 207 115 83 31 116 47 111 52 -2 2 -20 -3 -40 -11 -20 -8 -36 -11 -36 -7
0 12 77 34 90 26 9 -6 11 -4 5 5 -6 10 -3 12 13 8 12 -4 20 -2 16 3 -10 17 19
9 33 -8 8 -10 11 -12 7 -4 -5 9 -3 12 4 7 7 -4 17 -16 23 -28 8 -15 8 -19 0
-14 -14 9 -14 7 4 -43 8 -23 14 -44 14 -46 -3 -19 13 -75 20 -71 4 3 6 -5 4
-18 -3 -13 0 -27 6 -30 7 -5 9 -1 5 9 -5 11 -2 14 12 8 14 -5 16 -3 11 12 -6
15 -5 16 7 6 13 -11 13 -8 3 18 -6 17 -14 26 -18 20 -9 -16 -21 39 -14 64 5
18 4 19 -5 7 -9 -12 -11 -10 -7 12 2 15 0 25 -4 22 -5 -3 -10 10 -10 28 -2 52
1 62 23 81 20 17 20 17 -6 17 -14 0 -27 -3 -27 -7z m-224 -93 c-3 -5 -11 -10
-16 -10 -6 0 -7 5 -4 10 3 6 11 10 16 10 6 0 7 -4 4 -10z m-35 -9 c0 -5 -7
-12 -16 -15 -14 -5 -15 -4 -4 9 14 17 20 19 20 6z m-41 -24 c-2 -1 -33 -16
-68 -32 -35 -17 -70 -36 -77 -43 -8 -8 -15 -9 -19 -2 -6 10 154 94 163 85 3
-3 3 -6 1 -8z m-130 -164 c12 -24 19 -43 16 -43 -5 0 -45 75 -45 86 0 11 6 2
29 -43z m-269 -64 c-14 -11 -46 -38 -72 -59 -26 -22 -49 -36 -52 -32 -5 9 123
111 139 111 6 0 -1 -9 -15 -20z m330 -41 c0 -17 -10 -6 -25 25 l-16 32 20 -25
c11 -14 21 -28 21 -32z m140 2 c-19 -11 -39 -19 -45 -19 -5 0 6 8 25 19 19 11
40 19 45 19 6 0 -6 -8 -25 -19z m-530 -255 c13 -14 21 -25 18 -25 -2 0 -15 11
-28 25 -13 14 -21 25 -18 25 2 0 15 -11 28 -25z"/>
<path d="M2928 4534 c6 -3 9 -10 6 -15 -3 -6 4 -7 18 -4 13 3 37 1 52 -5 28
-10 28 -12 23 -61 -4 -31 -13 -57 -24 -66 -10 -8 -12 -12 -5 -8 7 4 12 0 12
-9 0 -9 -4 -16 -9 -16 -5 0 -7 -10 -4 -22 4 -19 3 -20 -6 -8 -9 12 -10 9 -5
-14 5 -21 4 -27 -5 -22 -9 6 -10 0 -6 -21 5 -21 4 -24 -4 -13 -6 8 -11 10 -11
4 0 -5 6 -19 14 -29 10 -14 17 -17 27 -9 10 8 27 5 59 -8 27 -11 34 -16 17
-13 -20 4 -27 2 -22 -6 5 -6 19 -9 37 -5 20 4 27 2 22 -5 -4 -8 1 -9 16 -4 15
5 20 4 16 -4 -4 -6 -2 -11 4 -11 6 0 10 7 8 16 -3 16 -95 55 -135 57 -13 1
-23 4 -23 7 0 3 17 51 39 107 25 67 35 103 27 106 -21 7 15 38 37 31 44 -14
89 -35 84 -40 -3 -3 -19 2 -36 10 -16 9 -36 16 -43 16 -7 0 41 -24 107 -54 66
-29 153 -70 194 -90 40 -21 75 -35 77 -33 6 6 -81 57 -95 57 -6 0 -11 4 -11
10 0 19 111 -44 116 -66 4 -14 -11 -50 -43 -107 -26 -47 -49 -84 -51 -82 -2 2
17 40 43 85 26 45 45 84 42 86 -5 5 -117 -199 -117 -212 1 -5 7 2 15 16 17 29
19 22 5 -14 -8 -22 -6 -28 16 -43 13 -10 54 -39 89 -65 35 -27 69 -48 76 -48
6 0 -14 19 -45 42 -31 23 -54 43 -51 46 2 3 25 -12 49 -32 l45 -37 35 38 c35
38 37 53 9 53 -9 0 -13 -6 -10 -14 6 -15 -20 -43 -39 -42 -17 1 -149 100 -152
114 -2 13 105 185 119 190 5 2 6 8 3 14 -3 5 19 -7 50 -28 31 -20 55 -39 52
-41 -2 -2 -21 8 -41 22 -21 14 -41 22 -44 19 -3 -4 0 -9 6 -11 7 -3 61 -41
120 -84 109 -82 146 -106 105 -70 -12 11 -18 22 -14 25 11 6 43 -26 46 -46 3
-24 16 -36 34 -33 27 4 50 -22 44 -53 -5 -30 -31 -64 -42 -57 -4 3 -13 -2 -20
-10 -7 -8 -10 -15 -6 -15 4 0 -1 -11 -10 -25 -9 -14 -20 -23 -24 -20 -9 6 -53
-41 -56 -60 -1 -9 7 -20 19 -27 20 -10 21 -10 9 5 -12 14 -7 24 44 77 54 57
98 85 58 38 -10 -13 -2 -7 19 11 40 38 51 56 15 25 l-23 -19 19 22 c15 18 22
20 33 12 10 -9 13 -8 13 5 0 11 5 15 13 10 6 -4 -24 30 -68 75 -199 205 -513
390 -802 475 -79 23 -187 44 -155 30z m287 -94 c3 -5 1 -10 -4 -10 -6 0 -11 5
-11 10 0 6 2 10 4 10 3 0 8 -4 11 -10z m35 -15 c11 -13 10 -14 -4 -9 -9 3 -16
10 -16 15 0 13 6 11 20 -6z m60 -25 c0 -5 -5 -10 -11 -10 -5 0 -7 5 -4 10 3 6
8 10 11 10 2 0 4 -4 4 -10z m60 -32 c0 -4 -11 -2 -25 4 -14 6 -25 15 -25 19 0
4 11 2 25 -4 14 -7 25 -15 25 -19z m335 -198 c30 -22 55 -45 55 -50 0 -6 -27
11 -60 37 -33 25 -60 48 -60 50 0 8 15 0 65 -37z m135 -120 c0 -5 -2 -10 -4
-10 -3 0 -8 5 -11 10 -3 6 -1 10 4 10 6 0 11 -4 11 -10z m-395 -25 c39 -32 24
-32 -23 0 -20 14 -30 25 -22 25 8 -1 29 -12 45 -25z m480 -45 c10 -11 16 -20
13 -20 -3 0 -13 9 -23 20 -10 11 -16 20 -13 20 3 0 13 -9 23 -20z m-135 -133
c0 -2 -12 -14 -27 -28 l-28 -24 24 28 c23 25 31 32 31 24z"/>
<path d="M2090 4510 c-8 -5 -12 -11 -10 -14 3 -2 14 2 24 10 22 15 10 19 -14
4z"/>
<path d="M2980 4504 c0 -2 9 -8 20 -14 11 -6 20 -7 20 -2 0 6 -9 12 -20 15
-11 3 -20 3 -20 1z"/>
<path d="M2418 4478 c-21 -10 -38 -21 -38 -24 0 -3 4 -3 9 1 5 3 12 1 16 -5 3
-5 2 -10 -3 -10 -5 0 -4 -17 4 -37 12 -34 19 -215 7 -185 -8 20 -23 14 -23 -9
0 -17 4 -20 23 -15 12 3 45 6 72 7 34 1 43 3 27 7 -13 4 -23 12 -22 17 1 6 -6
12 -16 13 -11 3 -14 0 -9 -9 5 -7 4 -10 -2 -6 -6 4 -11 55 -12 124 -1 64 -4
120 -7 124 -2 4 2 9 8 12 7 2 11 6 8 9 -3 2 -22 -4 -42 -14z"/>
<path d="M2646 4481 c-4 -6 -3 -11 2 -11 4 0 6 -23 2 -50 -4 -30 -2 -53 3 -57
6 -3 7 -1 3 5 -4 7 -1 12 9 12 10 0 13 -5 9 -12 -4 -7 -3 -8 5 -4 7 5 9 16 5
28 -4 13 -1 24 7 29 11 7 11 9 1 9 -7 0 -10 5 -7 10 4 6 11 7 17 4 7 -4 8 -2
4 4 -4 8 0 12 11 12 10 0 25 5 33 10 10 7 0 8 -33 3 -35 -4 -51 -2 -57 7 -5 8
-9 9 -14 1z"/>
<path d="M2165 4459 c-19 -7 -19 -8 -1 -8 13 -1 16 -4 8 -13 -5 -8 -7 -30 -3
-52 4 -30 11 -40 26 -41 18 -1 20 4 16 49 -4 57 -17 76 -46 65z"/>
<path d="M2323 4463 c9 -2 23 -2 30 0 6 3 -1 5 -18 5 -16 0 -22 -2 -12 -5z"/>
<path d="M2837 4456 c-7 -17 18 -41 32 -32 5 4 11 -2 13 -11 5 -26 -13 -133
-22 -128 -4 2 -5 -7 -2 -22 3 -16 1 -24 -5 -20 -6 4 -8 -4 -6 -21 3 -19 2 -23
-5 -14 -7 11 -10 11 -15 -2 -3 -8 -1 -17 6 -20 9 -3 9 -5 0 -5 -7 -1 -13 -6
-13 -11 0 -6 11 -8 26 -4 19 5 25 4 20 -5 -4 -6 -1 -11 8 -11 8 0 18 5 21 10
4 6 14 1 26 -12 16 -19 18 -20 12 -4 -4 14 -2 17 8 14 8 -3 13 -11 11 -17 -1
-7 2 -10 7 -7 5 4 14 -2 20 -11 10 -17 10 -17 11 2 1 18 2 19 13 3 7 -9 58
-36 114 -61 56 -24 130 -60 166 -80 86 -48 240 -159 301 -216 28 -25 45 -39
38 -30 -6 9 -8 20 -4 24 4 5 2 5 -5 1 -6 -3 -14 -2 -18 4 -3 5 -1 10 4 10 6 0
11 6 11 13 0 6 42 56 94 111 l93 98 -106 84 c-58 46 -112 84 -120 84 -11 0
-10 -4 5 -16 10 -8 14 -13 7 -10 -6 4 -21 -6 -33 -21 -12 -16 -26 -28 -31 -28
-14 0 -11 -20 3 -23 8 -1 24 8 37 22 l23 25 70 -56 c54 -44 72 -53 81 -44 7 7
8 12 2 11 -23 -5 -36 1 -29 12 5 7 3 8 -6 3 -9 -6 -11 -4 -5 5 5 8 4 11 -3 6
-6 -3 -18 4 -26 16 -9 12 -16 19 -16 14 0 -13 -30 15 -41 38 -10 20 -9 20 9
-1 11 -12 22 -20 25 -17 3 3 13 -6 22 -20 10 -14 21 -24 25 -21 5 3 15 -4 23
-15 7 -11 16 -18 19 -15 2 3 15 -7 29 -22 20 -23 20 -25 2 -10 -21 18 -22 18
-25 -6 -4 -35 -129 -180 -141 -164 -6 8 -7 6 -3 -5 3 -12 0 -18 -10 -18 -8 0
-12 5 -9 10 8 14 -16 33 -155 128 -152 103 -143 99 -135 71 4 -16 3 -20 -3
-11 -5 8 -13 13 -18 13 -15 -1 -46 11 -41 16 3 2 15 0 26 -7 18 -9 21 -8 21 9
0 27 62 131 73 124 6 -3 7 -1 3 5 -7 12 29 92 48 104 10 7 -57 40 -187 92 -61
24 -69 25 -83 11 -35 -34 -39 -114 -6 -96 10 5 21 8 27 8 5 -1 11 6 13 17 3
12 0 16 -8 11 -9 -6 -9 -3 -1 13 12 22 38 35 46 23 2 -5 21 -12 40 -15 19 -4
35 -11 35 -16 0 -13 -1 -13 -43 5 -67 28 -53 15 22 -21 40 -19 76 -33 79 -30
2 3 -7 10 -22 15 -14 6 -26 16 -26 23 0 8 3 9 8 3 4 -5 14 -11 22 -13 8 -2 17
-8 18 -13 2 -5 7 -7 11 -5 4 3 5 -9 3 -26 -3 -16 -8 -25 -11 -19 -4 6 -26 -28
-49 -74 -23 -47 -40 -85 -37 -85 3 0 21 32 40 70 19 39 38 70 41 70 2 0 -14
-37 -38 -82 -29 -55 -51 -84 -67 -90 -21 -7 -22 -6 -11 7 15 18 16 16 -30 34
-166 64 -285 100 -292 88 -10 -14 -2 39 13 97 6 22 12 51 14 65 2 14 4 26 5
26 1 0 3 15 5 33 1 17 -1 32 -6 32 -5 0 -9 7 -9 15 0 8 -3 15 -6 15 -3 0 -12
-7 -20 -15 -18 -17 -34 -20 -34 -5 0 6 5 10 11 10 5 0 7 5 4 10 -9 14 -22 12
-28 -4z m208 -336 c3 -5 1 -10 -4 -10 -6 0 -11 5 -11 10 0 6 2 10 4 10 3 0 8
-4 11 -10z m35 -15 c11 -13 10 -14 -4 -9 -9 3 -16 10 -16 15 0 13 6 11 20 -6z
m40 -15 c0 -5 -2 -10 -4 -10 -3 0 -8 5 -11 10 -3 6 -1 10 4 10 6 0 11 -4 11
-10z m25 -10 c3 -5 1 -10 -4 -10 -6 0 -11 5 -11 10 0 6 2 10 4 10 3 0 8 -4 11
-10z m50 -12 c5 4 5 2 1 -5 -8 -14 -36 -6 -36 9 0 7 5 6 13 -1 8 -6 18 -7 22
-3z m175 -111 c0 -4 -11 0 -25 9 -14 9 -25 20 -25 26 0 11 49 -23 50 -35z m60
-38 c0 -5 -11 -2 -25 7 -14 9 -25 20 -25 25 0 5 11 2 25 -7 14 -9 25 -20 25
-25z m63 -47 c5 -7 12 -10 17 -7 5 3 16 -5 25 -17 8 -13 18 -22 20 -20 3 1 5
-1 6 -5 0 -5 8 -17 17 -27 9 -11 -17 9 -58 43 -41 34 -77 68 -79 74 -4 13 40
-21 52 -41z"/>
<path d="M2768 4453 c7 -3 16 -2 19 1 4 3 -2 6 -13 5 -11 0 -14 -3 -6 -6z"/>
<path d="M1890 4389 c-107 -37 -201 -82 -189 -90 7 -4 9 -14 6 -24 -4 -9 -3
-14 2 -11 11 7 23 -22 14 -36 -3 -6 -1 -8 5 -4 6 3 18 -4 28 -16 9 -13 14 -16
11 -7 -3 9 -1 21 5 27 8 8 7 18 -4 34 -17 26 -33 66 -22 55 4 -4 12 -3 18 2
18 14 46 21 46 12 0 -5 -12 -12 -26 -15 -15 -4 -24 -9 -22 -12 8 -7 68 17 63
26 -3 4 2 13 9 19 10 8 16 9 21 1 10 -17 25 -11 18 8 -5 14 -3 15 8 5 18 -18
32 -16 25 2 -3 8 -3 15 0 15 5 0 12 -18 56 -135 33 -87 42 -135 26 -135 -6 0
-7 7 -4 16 8 21 -13 14 -144 -48 -58 -28 -120 -57 -139 -65 -31 -13 -32 -15
-15 -27 17 -13 16 -14 -7 -25 -23 -11 -23 -11 -5 3 19 15 19 16 -7 16 -16 0
-30 8 -37 19 -13 25 -13 34 1 25 13 -8 -1 20 -25 51 -13 16 -15 17 -10 3 12
-34 -4 -17 -45 47 -22 36 -37 65 -32 65 4 0 17 -18 30 -40 12 -22 26 -42 32
-46 5 -3 -4 17 -21 45 -18 28 -38 51 -47 51 -16 0 -79 -41 -170 -113 -65 -50
-84 -73 -35 -42 27 18 27 18 10 -2 -17 -19 -16 -21 16 -52 32 -31 57 -35 55
-8 0 8 -2 8 -6 -1 -3 -8 -11 -5 -24 12 -23 29 -26 68 -5 60 8 -3 40 13 70 36
45 34 54 45 45 57 -10 11 -9 12 5 7 9 -3 16 -11 16 -18 0 -7 3 -6 9 2 6 10 25
-11 66 -72 32 -47 56 -89 52 -92 -8 -8 16 -33 26 -27 4 2 7 2 7 -1 0 -8 -94
-71 -102 -68 -5 1 -8 -2 -8 -6 0 -5 -22 -28 -50 -51 -27 -23 -47 -35 -44 -27
6 17 90 88 98 84 3 -2 13 7 21 20 9 12 20 20 24 18 4 -3 12 4 19 15 20 32 0
22 -73 -37 -99 -79 -167 -143 -161 -153 3 -5 0 -14 -8 -20 -14 -12 -57 18
-155 108 -24 22 -48 38 -54 34 -6 -3 -7 -1 -4 4 4 6 -1 17 -10 24 -14 12 -15
12 -11 -1 3 -9 -14 -38 -40 -70 -28 -34 -34 -44 -16 -27 17 15 34 24 38 20 4
-5 6 -2 4 6 -2 7 3 16 10 18 6 3 12 -2 12 -10 0 -13 114 -112 129 -112 15 -1
32 -18 30 -33 -3 -37 3 -34 59 21 31 31 61 56 65 56 5 -1 39 23 75 53 107 88
197 145 328 210 79 38 121 65 117 72 -4 7 -2 7 8 -1 12 -10 20 -8 42 6 15 10
24 21 20 24 -3 4 1 7 9 7 9 0 19 -6 21 -12 3 -8 6 -6 6 4 1 12 7 16 19 12 14
-5 14 -4 3 4 -12 9 -10 12 11 17 15 4 37 4 50 1 13 -3 17 -3 9 0 -11 5 -11 8
0 15 21 13 -24 11 -58 -3 -15 -6 -32 -10 -36 -9 -5 1 -6 -3 -2 -9 3 -5 3 -10
0 -10 -12 0 -36 72 -29 92 4 15 3 18 -7 13 -9 -6 -11 -2 -6 16 8 29 -30 149
-46 148 -7 0 -37 -9 -67 -20z m60 -64 c0 -5 -5 -3 -10 5 -5 8 -10 20 -10 25 0
6 5 3 10 -5 5 -8 10 -19 10 -25z m-499 -189 c-1 -3 -2 -6 -3 -5 -2 1 -20 -15
-42 -35 -36 -34 -49 -40 -47 -19 1 4 6 9 11 9 6 1 15 2 20 3 6 0 9 5 8 10 -2
5 2 10 7 11 6 2 16 11 24 22 12 17 24 19 22 4z m479 -46 c0 -5 -5 -10 -11 -10
-5 0 -7 5 -4 10 3 6 8 10 11 10 2 0 4 -4 4 -10z m-50 -18 c0 -5 -12 -14 -26
-21 -20 -9 -25 -9 -21 1 2 7 10 12 16 11 6 -2 11 2 11 7 0 6 5 10 10 10 6 0
10 -4 10 -8z m-260 -33 c0 -6 -4 -7 -10 -4 -5 3 -10 11 -10 16 0 6 5 7 10 4 6
-3 10 -11 10 -16z m200 3 c0 -5 -16 -16 -36 -25 -25 -13 -34 -14 -31 -5 2 7
10 12 16 11 6 -2 11 2 11 8 0 5 5 7 10 4 6 -3 10 -1 10 4 0 6 5 11 10 11 6 0
10 -4 10 -8z m-560 -279 c0 -8 -9 0 -50 45 l-45 47 48 -45 c26 -24 47 -45 47
-47z m-10 -19 c14 -15 -3 -4 -37 26 -35 29 -63 55 -63 57 0 8 74 -54 100 -83z
m188 30 c-4 -3 -8 -4 -11 -2 -3 2 -15 -6 -28 -17 l-24 -20 19 23 c11 12 26 22
34 22 9 0 13 -3 10 -6z m-138 -39 c13 -14 21 -25 18 -25 -2 0 -15 11 -28 25
-13 14 -21 25 -18 25 2 0 15 -11 28 -25z"/>
<path d="M2307 4333 c3 -39 1 -53 -5 -44 -7 10 -14 11 -28 2 -18 -10 -18 -10
1 -12 11 0 29 -2 40 -3 18 -2 20 2 16 38 -2 23 -8 47 -15 55 -9 12 -8 13 7 8
11 -4 16 -3 12 3 -3 6 -12 10 -19 10 -9 0 -12 -16 -9 -57z"/>
<path d="M2767 4353 c-4 -3 -7 -20 -7 -37 0 -24 -3 -28 -11 -16 -8 12 -9 11
-7 -5 3 -13 10 -19 22 -17 12 2 16 -1 10 -10 -4 -7 -3 -9 2 -5 4 4 9 28 10 52
2 42 -4 54 -19 38z"/>
<path d="M2220 4281 c0 -5 7 -11 14 -14 10 -4 13 -1 9 9 -6 15 -23 19 -23 5z"/>
<path d="M2170 4270 c0 -5 5 -10 10 -10 6 0 10 5 10 10 0 6 -4 10 -10 10 -5 0
-10 -4 -10 -10z"/>
<path d="M3195 4230 c-10 -20 -12 -29 -5 -25 8 5 11 3 8 -6 -3 -8 -10 -13 -15
-12 -17 3 -9 -36 9 -41 14 -3 22 5 33 31 27 65 0 112 -30 53z m18 -5 c-3 -9
-8 -14 -10 -11 -3 3 -2 9 2 15 9 16 15 13 8 -4z m8 -32 c-12 -20 -14 -14 -5
12 4 9 9 14 11 11 3 -2 0 -13 -6 -23z"/>
<path d="M2325 4210 c-3 -5 -1 -10 4 -10 6 0 11 5 11 10 0 6 -2 10 -4 10 -3 0
-8 -4 -11 -10z"/>
<path d="M2260 4200 c0 -5 5 -10 10 -10 6 0 10 5 10 10 0 6 -4 10 -10 10 -5 0
-10 -4 -10 -10z"/>
<path d="M2770 4195 c7 -8 20 -14 29 -14 13 1 13 2 -2 6 -9 2 -15 9 -12 14 4
5 -1 9 -11 9 -13 0 -14 -3 -4 -15z"/>
<path d="M3018 4203 c7 -3 16 -2 19 1 4 3 -2 6 -13 5 -11 0 -14 -3 -6 -6z"/>
<path d="M2210 4190 c0 -5 7 -7 15 -4 8 4 15 8 15 10 0 2 -7 4 -15 4 -8 0 -15
-4 -15 -10z"/>
<path d="M2608 4193 c7 -3 16 -2 19 1 4 3 -2 6 -13 5 -11 0 -14 -3 -6 -6z"/>
<path d="M2165 4180 c-3 -5 -2 -10 4 -10 5 0 13 5 16 10 3 6 2 10 -4 10 -5 0
-13 -4 -16 -10z"/>
<path d="M1408 3900 c-29 -27 -48 -49 -43 -49 14 0 121 99 107 99 -6 0 -35
-22 -64 -50z"/>
<path d="M3881 3809 c-31 -28 -32 -32 -18 -47 15 -14 18 -14 36 2 14 12 26 16
38 11 10 -5 21 -7 25 -7 12 3 98 -111 98 -129 0 -9 -8 -23 -17 -30 -14 -12
-16 -12 -9 0 6 9 5 12 -5 9 -8 -3 -13 -10 -12 -16 1 -5 -5 -16 -15 -24 -15
-12 -16 -11 -3 5 7 9 10 17 7 17 -13 0 -65 -43 -61 -50 3 -4 -3 -14 -13 -21
-15 -13 -16 -12 -3 4 20 25 2 21 -43 -9 -21 -15 -35 -21 -31 -14 5 8 4 11 -2
7 -15 -9 -36 19 -27 35 4 7 4 10 -1 6 -4 -4 -15 -2 -23 5 -8 6 6 -19 33 -58
26 -38 52 -69 57 -67 5 1 7 -2 3 -7 -9 -15 24 -73 37 -65 8 5 9 2 5 -9 -3 -10
-2 -17 4 -17 6 0 6 -6 0 -18 -8 -15 -1 -41 29 -111 22 -50 40 -96 40 -102 0
-5 5 -7 12 -3 7 4 8 3 4 -4 -4 -6 5 -51 18 -99 48 -165 57 -231 58 -389 0
-137 -13 -285 -29 -324 -3 -8 -5 -23 -4 -32 1 -10 -1 -18 -6 -18 -4 0 -8 -20
-8 -46 0 -39 -1 -43 -12 -28 -16 21 -16 15 -3 -23 9 -24 8 -25 -3 -12 -11 15
-16 6 -41 -65 -32 -90 -83 -196 -130 -271 -18 -27 -35 -55 -39 -62 -8 -13 18
-12 30 2 4 4 2 5 -6 0 -9 -5 -12 -3 -9 6 3 8 10 14 16 14 5 0 14 4 19 9 5 5 2
6 -6 1 -9 -5 -12 -3 -9 6 3 8 10 13 16 12 7 -2 9 4 5 14 -4 11 -2 14 5 9 6 -3
16 3 22 14 6 11 16 17 22 14 7 -4 8 -3 4 4 -5 8 1 12 14 12 12 0 18 -4 15 -10
-3 -5 39 -32 94 -60 105 -52 116 -56 106 -40 -3 6 -2 10 4 10 6 0 17 12 26 28
15 26 16 26 9 2 -11 -43 3 -19 46 79 23 52 39 103 37 112 -3 10 0 20 7 22 11
4 -12 16 -63 32 -16 5 -21 4 -17 -4 5 -7 -1 -11 -14 -11 -14 0 -19 4 -14 13 4
6 3 9 -1 4 -15 -13 -16 -47 -1 -47 8 0 23 -3 33 -6 15 -5 15 -4 3 5 -8 6 -10
11 -5 11 21 0 32 -16 38 -55 5 -36 5 -38 -7 -17 -12 22 -14 19 -49 -60 -20
-46 -37 -76 -37 -68 -1 15 -186 111 -193 100 -2 -3 -2 0 -1 7 8 31 -15 18 -31
-17 -10 -22 -20 -38 -22 -36 -2 2 11 34 30 72 20 40 37 62 41 56 4 -7 2 -12
-4 -12 -7 0 -9 -7 -6 -16 3 -8 2 -12 -4 -9 -6 3 -10 2 -10 -4 0 -27 21 -17 35
16 43 100 95 268 90 287 -5 17 -4 18 4 6 9 -12 11 -12 11 -1 0 10 8 12 33 6
17 -4 42 -7 55 -6 12 0 22 -4 22 -9 0 -6 11 -8 25 -4 16 4 25 2 25 -6 0 -7 8
-9 21 -5 12 4 19 3 16 -2 -3 -5 7 -7 25 -5 23 4 29 2 23 -8 -5 -9 -4 -11 4 -6
6 4 9 11 6 15 -2 5 0 23 5 42 6 19 13 73 16 121 5 81 4 87 -15 98 -12 6 -26 8
-31 5 -5 -3 -19 -1 -31 5 -25 14 -36 6 -21 -13 7 -8 10 -16 8 -18 -3 -2 13 -3
35 -1 25 3 39 0 39 -8 0 -6 -5 -8 -12 -4 -9 5 -8 2 1 -9 19 -23 7 -144 -17
-171 -11 -12 -12 -16 -3 -11 10 5 12 4 7 -3 -10 -16 -31 -15 -46 3 -14 17 -35
21 -25 5 3 -6 -1 -10 -9 -10 -9 0 -16 7 -16 15 0 8 -8 15 -18 15 -25 0 -111
30 -117 40 -9 14 16 323 27 344 7 14 6 16 -4 11 -9 -6 -10 -5 -3 3 6 7 65 14
138 18 82 5 127 11 127 18 -1 6 -7 62 -14 125 -8 63 -12 120 -9 128 3 7 0 13
-7 13 -6 0 -8 -4 -5 -10 3 -5 -1 -10 -9 -10 -9 0 -16 5 -16 10 0 6 -4 10 -10
10 -5 0 -10 -7 -10 -15 0 -8 -5 -15 -11 -15 -5 0 -7 5 -3 12 5 8 2 9 -10 5
-10 -4 -25 -7 -34 -8 -11 0 -12 -2 -4 -6 6 -2 10 -9 6 -14 -3 -5 10 -9 28 -9
19 0 40 -6 47 -12 11 -11 12 -10 6 1 -6 10 -4 12 4 7 7 -5 10 -14 7 -21 -3 -8
-1 -15 4 -17 5 -2 12 -35 16 -73 6 -61 4 -73 -12 -85 -10 -9 -15 -10 -10 -2 4
7 1 12 -8 12 -9 0 -16 -7 -16 -15 0 -14 -16 -16 -100 -14 -55 1 -100 4 -100 6
0 3 -7 52 -15 109 -9 58 -13 110 -9 116 5 7 3 8 -6 3 -10 -6 -12 -1 -8 19 3
14 1 26 -3 26 -5 0 -9 9 -9 21 0 11 -3 18 -8 15 -4 -2 -6 13 -4 35 2 21 9 42
15 46 6 3 7 1 3 -5 -4 -7 -1 -12 8 -12 20 0 30 17 14 23 -7 3 1 3 18 0 22 -3
33 -1 37 10 4 10 13 13 26 10 14 -3 23 0 27 11 3 9 10 16 16 16 5 0 7 -4 4 -9
-4 -5 3 -7 14 -4 11 3 18 8 15 12 -2 4 10 6 28 4 26 -3 28 -1 12 6 -11 5 -14
10 -6 10 7 1 11 7 8 14 -2 6 -7 23 -11 37 -6 20 -5 22 4 10 16 -22 4 19 -31
106 -46 110 -46 110 -102 83 -26 -13 -47 -27 -47 -32 0 -4 5 -5 12 -1 7 4 8 3
4 -4 -4 -7 -3 -19 2 -28 8 -15 11 -15 31 5 21 21 47 29 36 11 -4 -6 -1 -9 6
-8 8 2 14 -7 14 -22 1 -30 37 -120 48 -120 11 0 8 -28 -5 -36 -7 -5 -8 -3 -3
6 6 9 4 12 -6 8 -8 -3 -51 -18 -96 -33 -46 -15 -83 -32 -83 -36 0 -13 -28 -11
-36 3 -4 7 -3 8 5 4 22 -14 -112 294 -138 314 -16 13 -7 37 22 56 17 11 44 29
60 38 15 10 27 16 27 14 0 -3 -25 -22 -56 -42 -97 -65 -51 -49 56 19 57 36 98
65 92 65 -7 0 -12 8 -12 18 0 15 2 15 11 2 9 -13 10 -13 6 0 -2 8 -10 15 -18
15 -8 0 -13 8 -13 17 1 10 -3 16 -10 15 -6 -1 -10 6 -10 15 1 10 -2 16 -6 13
-4 -3 -26 19 -48 48 -45 60 -78 97 -83 97 -2 0 -19 -14 -38 -31z m39 7 c0 -2
-8 -10 -17 -17 -16 -13 -17 -12 -4 4 13 16 21 21 21 13z m309 -441 c0 -5 -6 1
-14 15 -8 14 -14 30 -14 35 0 6 6 -1 14 -15 8 -14 14 -29 14 -35z m11 -70 c0
-5 -5 -3 -10 5 -5 8 -10 20 -10 25 0 6 5 3 10 -5 5 -8 10 -19 10 -25z m-276
-17 c-4 -14 -2 -18 5 -14 6 4 11 5 11 2 0 -3 -4 -7 -9 -11 -12 -7 -34 32 -26
45 11 17 26 -1 19 -22z m297 -25 c-12 -20 -14 -14 -5 12 4 9 9 14 11 11 3 -2
0 -13 -6 -23z m-278 -20 c-4 -11 -3 -14 5 -9 8 5 10 2 5 -10 -5 -15 -7 -15
-15 0 -5 9 -6 21 -3 26 10 16 15 12 8 -7z m18 -46 c-10 -9 -11 -8 -5 6 3 10 9
15 12 12 3 -3 0 -11 -7 -18z m20 -54 c-12 -20 -14 -14 -5 12 4 9 9 14 11 11 3
-2 0 -13 -6 -23z m196 -889 c-3 -3 -12 -4 -19 -1 -8 3 -5 6 6 6 11 1 17 -2 13
-5z m-200 -186 c-3 -8 -6 -5 -6 6 -1 11 2 17 5 13 3 -3 4 -12 1 -19z m-23 -74
c3 -8 2 -12 -4 -9 -6 3 -10 10 -10 16 0 14 7 11 14 -7z m232 -161 c-8 -16 -15
-22 -16 -14 0 11 -4 10 -15 -5 -9 -10 -5 2 7 29 17 36 24 44 30 32 6 -9 3 -25
-6 -42z m-323 -8 c-3 -9 -8 -14 -10 -11 -3 3 -2 9 2 15 9 16 15 13 8 -4z m157
-20 c28 -14 50 -28 50 -30 0 -5 -99 42 -109 51 -12 11 15 1 59 -21z"/>
<path d="M4216 1855 c-9 -26 -7 -32 5 -12 6 10 9 21 6 23 -2 3 -7 -2 -11 -11z"/>
<path d="M3660 3735 c19 -19 36 -35 39 -35 3 0 -10 16 -29 35 -19 19 -36 35
-39 35 -3 0 10 -16 29 -35z"/>
<path d="M3891 3750 c-13 -11 -19 -20 -13 -20 5 0 20 9 33 20 13 10 20 19 14
19 -5 0 -21 -9 -34 -19z"/>
<path d="M1010 3715 c-18 -26 -36 -43 -43 -39 -7 3 -1 -4 13 -15 16 -14 19
-19 8 -15 -29 10 -21 -3 16 -25 43 -27 59 -27 26 0 -24 19 -24 20 -2 9 13 -6
31 -9 39 -6 14 6 14 9 -2 26 -10 11 -26 20 -37 20 -24 0 -23 25 3 61 11 16 18
29 15 29 -3 0 -19 -20 -36 -45z m54 -84 c-2 -3 -12 3 -22 13 -16 17 -16 18 5
5 12 -7 20 -15 17 -18z"/>
<path d="M1120 3722 c9 -4 15 -14 15 -22 -1 -20 15 -41 26 -34 5 3 9 -3 9 -12
0 -14 3 -15 12 -6 8 8 8 15 -3 29 -13 16 -12 17 4 4 9 -7 17 -9 17 -4 0 14
-57 53 -77 52 -15 0 -15 -2 -3 -7z m36 -38 c1 -9 0 -13 -4 -10 -3 4 -7 14 -8
22 -1 9 0 13 4 10 3 -4 7 -14 8 -22z"/>
<path d="M1837 3699 c-8 -19 -47 -111 -86 -206 -41 -96 -69 -177 -65 -184 4
-7 3 -9 -3 -6 -13 8 -87 -168 -77 -184 4 -7 3 -9 -3 -6 -14 9 -88 -167 -78
-184 5 -7 4 -10 -2 -6 -6 4 -13 1 -16 -6 -3 -6 -84 -200 -181 -429 -97 -230
-176 -420 -176 -423 0 -3 113 -5 251 -5 l250 0 16 38 c9 20 16 49 17 64 0 14
4 24 9 21 4 -2 7 -2 7 0 0 3 11 35 25 72 16 40 20 64 13 59 -10 -5 -10 -4 -2
5 8 9 100 11 355 9 l344 -3 -3 -24 c-3 -16 0 -21 9 -16 8 5 10 4 5 -4 -8 -13
22 -113 32 -107 4 2 7 -8 8 -23 1 -16 8 -43 17 -61 9 -18 15 -35 13 -39 -2 -3
146 -5 330 -4 l334 2 0 -139 0 -140 175 0 175 0 0 140 c0 77 3 139 8 139 4 -1
44 -1 89 0 l82 1 3 143 3 142 -93 -2 -93 -2 3 142 3 142 -180 0 -180 0 3 -142
3 -142 -130 0 c-72 0 -131 4 -131 8 0 4 6 13 13 20 9 11 9 12 0 7 -9 -5 -11
-2 -7 8 3 9 10 14 14 11 4 -3 11 2 14 11 3 8 2 12 -4 9 -6 -3 -7 1 -4 9 3 9 9
14 13 12 7 -5 72 117 71 132 -1 4 -14 -18 -30 -48 -42 -79 -37 -54 7 34 20 41
40 73 45 70 4 -3 5 3 1 12 -4 12 -3 15 5 10 8 -5 10 -1 5 10 -4 12 -3 15 5 10
8 -5 10 -1 5 10 -4 12 -3 15 5 10 8 -5 10 -1 5 10 -4 12 -3 15 5 10 8 -5 10
-1 5 10 -4 12 -3 15 5 10 8 -5 10 -1 5 10 -5 13 -3 15 7 9 8 -5 11 -4 7 3 -8
12 2 44 12 38 4 -3 26 33 49 80 48 95 56 128 12 44 -44 -84 -36 -51 12 44 23
47 45 83 50 80 4 -3 5 3 1 12 -4 12 -3 15 5 10 8 -5 10 -1 5 10 -4 12 -3 15 5
10 8 -5 10 -1 5 10 -4 12 -3 15 5 10 8 -5 10 -1 5 10 -4 11 -3 15 4 11 7 -5 9
0 6 13 -5 18 -16 19 -185 22 l-180 3 -85 -168 c-46 -92 -81 -171 -79 -176 3
-4 -1 -8 -9 -8 -8 0 -24 24 -36 54 -12 29 -25 50 -30 47 -5 -3 -7 1 -4 8 3 7
-38 118 -90 247 -52 129 -95 236 -95 238 0 2 -5 1 -12 -3 -7 -5 -8 -3 -4 5 10
15 -113 323 -125 315 -5 -3 -6 2 -3 10 3 9 1 16 -5 16 -6 0 -11 -4 -11 -10 0
-15 -463 -13 -477 1 -9 9 -15 3 -26 -22z m506 -16 c8 -13 11 -13 19 -2 7 10 8
8 3 -7 -5 -21 43 -151 160 -434 144 -346 175 -424 170 -428 -11 -11 -24 18
-115 248 -103 263 -228 560 -241 575 -14 15 -11 -7 10 -68 27 -78 54 -215 45
-229 -4 -7 -9 -24 -10 -38 -19 -294 -26 -376 -33 -389 -5 -9 -9 -36 -11 -61
-1 -25 -3 -56 -4 -70 -1 -14 4 -34 11 -45 27 -40 3 -137 -37 -150 -11 -3 -17
-12 -14 -20 3 -7 -4 -18 -15 -25 -12 -6 -21 -17 -21 -25 0 -12 -15 -15 -70
-15 -64 0 -70 2 -70 21 0 11 -4 17 -10 14 -9 -6 -12 1 -9 22 2 17 -115 52
-177 53 -31 0 -60 21 -47 33 3 4 100 7 213 7 228 0 240 3 220 54 -5 15 -7 38
-4 52 4 15 -2 41 -14 67 -11 24 -35 81 -53 127 -17 47 -37 88 -43 92 -6 4 -8
8 -3 8 4 0 0 15 -9 33 -10 17 -19 43 -20 57 -2 14 -8 43 -13 65 -8 37 -9 38
-11 10 l-2 -30 -14 32 c-7 17 -18 34 -24 38 -21 13 -75 -41 -94 -94 -10 -29
-20 -50 -22 -48 -2 2 6 33 20 68 28 75 60 100 104 80 23 -11 24 -11 12 5 -11
12 -26 15 -62 12 -54 -6 -68 4 -68 44 0 16 -7 31 -15 34 -8 4 -15 12 -15 20 0
20 -26 17 -76 -8 -84 -42 -148 -120 -213 -260 -42 -92 -218 -495 -332 -762
-95 -223 -123 -267 -152 -236 -8 9 -8 11 -1 7 7 -4 14 -1 17 6 3 6 134 318
291 692 158 373 284 685 281 693 -2 7 -1 11 4 8 12 -8 64 120 55 135 -4 7 -3
9 4 5 11 -7 27 28 19 41 -3 5 103 7 236 5 208 -2 243 -5 250 -19z m-241 -465
c-3 -17 174 -508 189 -522 5 -6 9 -17 9 -25 0 -14 -1 -14 -10 -1 -6 10 -10 11
-10 3 0 -10 -47 -13 -202 -13 -135 0 -198 4 -188 10 8 5 10 10 5 10 -6 0 -11
9 -11 19 0 11 3 18 7 16 10 -7 121 303 113 316 -4 7 -3 9 3 6 12 -8 47 88 37
104 -4 7 -3 9 4 5 10 -6 35 50 31 70 -3 18 1 26 14 21 6 -2 11 -11 9 -19z
m1142 -130 c-16 -18 -65 -106 -109 -195 -43 -89 -80 -161 -82 -159 -2 2 31 74
72 161 78 164 93 216 36 129 -37 -56 -63 -66 -61 -25 1 14 2 31 1 37 -2 18
-55 36 -92 32 -31 -3 -37 -9 -66 -68 -18 -36 -47 -101 -63 -145 -17 -44 -37
-94 -45 -111 -8 -17 -16 -49 -17 -72 -2 -23 -7 -42 -11 -42 -4 0 -7 -6 -6 -12
4 -31 -2 -59 -11 -53 -5 3 -10 -3 -10 -14 0 -12 -4 -21 -10 -21 -5 0 -10 -7
-10 -15 0 -10 -11 -15 -35 -15 -29 0 -35 4 -35 21 0 11 -4 18 -9 14 -5 -3 -12
3 -16 13 -14 47 -37 173 -41 232 -5 60 -4 63 11 46 8 -11 15 -24 15 -29 0 -5
12 -7 27 -4 19 3 31 -1 43 -16 11 -13 23 -18 33 -14 9 3 56 85 104 182 l88
175 164 0 165 0 -30 -32z m-91 -263 c-3 -9 -8 -14 -10 -11 -3 3 -2 9 2 15 9
16 15 13 8 -4z m-396 -51 c-3 -3 -12 -4 -19 -1 -8 3 -5 6 6 6 11 1 17 -2 13
-5z m-910 -71 c-3 -10 -5 -4 -5 12 0 17 2 24 5 18 2 -7 2 -21 0 -30z m1653
-118 c-11 -13 -10 -14 6 -9 16 6 17 5 7 -7 -16 -16 -18 -172 -3 -200 8 -15 7
-19 -3 -19 -18 0 -27 43 -27 134 l-1 71 -24 -27 c-22 -26 -29 -28 -103 -28
-92 0 -89 3 -98 -98 -11 -130 -34 -147 -206 -147 -96 0 -120 3 -134 17 -9 9
-14 23 -11 31 4 12 32 15 138 16 73 1 136 4 141 7 4 3 8 66 8 140 l0 134 161
0 c143 0 160 -2 149 -15z m-1277 -102 c-18 -2 -48 -2 -65 0 -18 2 -4 4 32 4
36 0 50 -2 33 -4z m504 1 c-3 -3 -12 -4 -19 -1 -8 3 -5 6 6 6 11 1 17 -2 13
-5z m646 -1 c-18 -2 -48 -2 -65 0 -18 2 -4 4 32 4 36 0 50 -2 33 -4z m-473
-99 c0 -19 -4 -33 -8 -30 -8 5 -4 66 4 66 2 0 4 -16 4 -36z m-602 -11 c-53 -2
-143 -2 -200 0 -57 1 -13 3 97 3 110 0 156 -2 103 -3z m1378 -78 c0 -11 -8
-21 -16 -22 -8 0 -37 -4 -65 -8 -57 -8 -93 10 -82 39 6 15 19 17 86 15 73 -3
79 -5 77 -24z m-512 -201 c9 -3 16 -13 16 -22 0 -14 -1 -14 -12 0 -7 9 -20 18
-28 21 -8 3 -10 6 -3 6 6 1 18 -2 27 -5z m391 -3 c-26 -11 -52 -40 -58 -66 -4
-18 -5 -17 -6 3 -1 27 40 72 66 71 16 0 16 -1 -2 -8z m-327 -168 c-3 -84 -6
-98 -20 -101 -16 -3 -18 6 -18 78 0 79 10 120 31 120 6 0 9 -37 7 -97z m180
-110 c-32 -2 -86 -2 -120 0 -35 2 -9 3 57 3 66 0 94 -1 63 -3z"/>
<path d="M3308 2513 c23 -2 61 -2 85 0 23 2 4 4 -43 4 -47 0 -66 -2 -42 -4z"/>
<path d="M827 3633 c-39 -65 -107 -197 -132 -258 -32 -76 -74 -205 -64 -200 5
4 9 2 9 -3 0 -6 -7 -13 -16 -16 -14 -5 -14 -7 0 -22 9 -8 16 -20 16 -27 0 -6
-7 -2 -15 9 -14 18 -15 17 -9 -11 4 -23 3 -27 -5 -15 -9 12 -10 9 -5 -14 5
-23 4 -27 -6 -21 -10 6 -12 4 -7 -9 4 -9 -2 -67 -12 -129 -19 -108 -37 -367
-25 -337 4 8 12 21 18 29 9 12 8 13 -4 6 -8 -4 -12 -5 -8 0 4 4 61 8 127 8 66
0 125 3 131 7 6 4 8 14 4 23 -3 9 -11 14 -16 11 -6 -4 -5 -10 3 -15 7 -4 -38
-5 -101 -2 -63 3 -117 10 -118 15 -2 4 -8 6 -13 2 -16 -10 -8 128 15 271 7 39
28 111 43 145 11 27 21 35 44 37 16 1 29 -2 29 -8 0 -5 11 -7 26 -3 18 5 25 3
20 -4 -4 -6 2 -8 16 -4 15 3 19 2 14 -7 -6 -8 -1 -10 17 -6 14 4 28 2 32 -4 3
-6 10 -9 15 -6 5 3 22 -2 37 -12 15 -10 24 -12 20 -5 -5 6 -4 12 1 12 5 0 23
43 41 95 28 82 31 98 19 112 -11 15 -11 16 6 10 16 -6 17 -5 7 7 -7 8 -32 21
-56 29 -35 12 -44 13 -49 2 -3 -9 2 -11 15 -8 12 4 19 0 19 -10 0 -8 7 -20 15
-27 9 -8 15 -8 15 -2 0 6 -5 12 -12 14 -9 3 -9 6 0 12 7 4 12 2 12 -4 0 -6 4
-9 9 -5 6 3 8 -4 6 -15 -2 -11 2 -20 8 -21 7 0 3 -4 -9 -9 -14 -5 -29 -32 -47
-82 -14 -40 -20 -65 -13 -56 7 10 16 15 19 11 10 -10 8 -25 -2 -18 -5 3 -12 1
-16 -5 -3 -5 -18 -10 -33 -10 -19 0 -23 3 -13 9 10 6 -2 13 -40 25 -30 9 -75
22 -101 30 -27 8 -48 11 -48 6 0 -5 8 -11 18 -13 16 -4 16 -5 -1 -6 -21 -1
-33 24 -19 42 15 19 103 239 107 267 1 14 3 30 4 35 1 6 6 3 11 -5 6 -9 10
-10 10 -3 0 6 -4 15 -10 18 -5 3 -10 11 -10 17 0 6 7 5 18 -3 14 -11 15 -11 5
1 -19 21 -16 34 5 19 14 -11 15 -11 5 1 -15 17 -17 34 -3 25 5 -3 7 0 4 9 -4
10 0 14 13 12 10 -2 26 1 35 6 13 6 16 5 13 -4 -5 -14 181 -125 191 -115 3 3
-8 13 -25 22 -17 8 -31 18 -31 21 0 2 14 -3 31 -12 30 -15 33 -15 53 6 11 12
17 20 11 19 -31 -5 -60 6 -129 51 -83 54 -96 60 -75 33 13 -16 12 -17 -3 -5
-9 7 -15 22 -13 32 2 11 0 22 -6 25 -5 4 -9 11 -9 16 0 6 5 7 12 3 7 -4 8 -3
4 4 -11 18 -12 17 -49 -45z m18 -7 c-9 -14 -14 -29 -11 -34 3 -5 -1 -9 -9 -9
-8 0 -15 2 -15 3 0 9 43 74 47 70 3 -2 -3 -16 -12 -30z m75 -72 c0 -2 -9 0
-20 6 -11 6 -20 13 -20 16 0 2 9 0 20 -6 11 -6 20 -13 20 -16z m-166 -127 c-3
-9 -11 -14 -17 -10 -6 4 -8 0 -5 -9 8 -19 -7 -45 -16 -29 -4 6 -2 11 4 11 6 0
9 4 5 9 -8 14 17 63 27 53 5 -5 6 -16 2 -25z m-41 -74 c-7 -3 -9 -12 -6 -21 4
-13 3 -14 -6 -6 -14 13 -3 47 12 37 8 -5 8 -8 0 -10z m-33 -104 c0 -6 -4 -7
-10 -4 -5 3 -10 11 -10 16 0 6 5 7 10 4 6 -3 10 -11 10 -16z m-15 -19 c3 -5 1
-10 -4 -10 -6 0 -11 5 -11 10 0 6 2 10 4 10 3 0 8 -4 11 -10z m290 0 c3 -5 1
-10 -4 -10 -6 0 -11 5 -11 10 0 6 2 10 4 10 3 0 8 -4 11 -10z"/>
<path d="M3908 3673 c-15 -10 -29 -24 -32 -33 -3 -13 -4 -12 -5 1 0 9 -8 20
-17 23 -13 5 -14 4 -6 -7 7 -8 9 -17 5 -20 -3 -4 1 -9 10 -13 19 -7 60 13 52
26 -3 5 -1 11 4 14 5 4 8 -2 7 -11 -1 -10 -17 -25 -34 -33 -39 -18 -42 -33 -5
-19 34 13 64 39 58 50 -3 4 -1 10 5 14 11 7 4 25 -8 25 -4 0 -19 -8 -34 -17z"/>
<path d="M4156 3669 c3 -5 10 -7 15 -3 6 3 9 -2 7 -12 -2 -11 2 -18 8 -17 6 1
16 -9 22 -22 10 -21 9 -25 -6 -25 -14 0 -15 -2 -2 -10 13 -8 13 -11 1 -22 -10
-10 -12 -10 -7 0 4 6 4 12 1 12 -17 0 -225 -124 -217 -129 5 -3 12 -17 16 -31
6 -20 5 -22 -4 -10 -10 13 -11 13 -7 0 2 -8 10 -14 17 -12 8 2 10 -3 6 -14 -6
-15 -4 -15 10 -3 16 13 16 12 4 -11 -12 -23 -12 -24 3 -11 18 14 22 7 18 -28
-2 -7 2 -10 8 -6 7 4 8 0 4 -11 -4 -12 -3 -15 5 -10 8 5 10 1 5 -10 -5 -14 -8
-12 -20 10 -8 15 -11 32 -7 39 5 9 4 9 -5 1 -9 -9 -7 -22 10 -57 12 -25 27
-43 32 -40 6 4 8 -1 4 -11 -5 -12 -3 -15 6 -9 6 4 19 6 28 5 9 -2 29 2 45 8
l29 12 -25 14 c-14 8 -18 14 -10 13 32 -3 44 1 34 11 -7 7 -21 7 -43 -1 -24
-9 -29 -14 -19 -20 9 -6 7 -9 -10 -9 -13 0 -20 4 -17 10 4 6 1 9 -6 8 -6 -2
-14 3 -17 11 -3 8 0 11 6 7 6 -4 -2 21 -19 54 -16 33 -34 58 -39 55 -17 -11
-11 32 7 46 11 10 14 10 9 2 -10 -18 -7 -17 89 29 59 28 82 44 73 49 -18 12
-1 11 22 -1 15 -8 18 -6 15 13 -1 12 -6 31 -9 42 -4 11 5 -2 19 -28 18 -33 23
-52 16 -60 -6 -8 0 -34 20 -81 16 -39 43 -108 60 -155 17 -47 34 -90 40 -95 5
-6 9 -24 8 -40 0 -17 -3 -26 -5 -20 -3 8 -38 2 -112 -20 -101 -30 -161 -55
-135 -56 6 0 10 -8 8 -17 -1 -10 2 -23 7 -30 5 -7 7 -17 3 -23 -4 -6 -1 -17 5
-25 6 -8 9 -19 6 -24 -4 -5 -2 -12 4 -16 5 -3 7 -17 4 -31 -4 -14 -2 -24 5
-24 14 0 14 17 0 97 -12 69 -6 109 12 83 8 -12 10 -10 6 8 -4 15 -1 22 6 19 7
-3 11 -9 10 -15 -2 -6 4 -9 12 -6 8 4 15 11 15 16 0 6 12 8 30 4 22 -4 29 -2
24 6 -5 8 1 9 20 4 18 -4 25 -3 21 4 -6 9 26 15 68 12 9 -1 17 3 17 9 0 5 6 7
13 3 6 -4 4 2 -7 14 -11 12 -16 30 -13 41 13 50 -128 391 -212 515 -17 26 -60
49 -45 25z m-58 -194 c-2 -1 -12 -7 -24 -13 -16 -8 -21 -8 -21 3 0 7 7 11 15
7 10 -3 13 -1 8 6 -5 8 -2 10 9 6 9 -4 15 -8 13 -9z m198 -42 c-9 -10 -27 9
-22 23 3 8 1 14 -5 14 -6 0 -7 5 -3 11 4 8 12 2 21 -15 8 -15 12 -30 9 -33z
m14 -17 c0 -3 -4 -8 -10 -11 -5 -3 -10 -1 -10 4 0 6 5 11 10 11 6 0 10 -2 10
-4z m20 -80 c-8 -8 -9 -6 -4 8 5 13 4 17 -4 12 -8 -5 -10 -2 -6 8 3 9 1 16 -6
16 -6 0 -8 5 -4 11 4 8 12 2 21 -16 11 -20 12 -30 3 -39z m20 -16 c0 -5 -5
-10 -11 -10 -5 0 -7 5 -4 10 3 6 8 10 11 10 2 0 4 -4 4 -10z m20 -53 c0 -4 -6
-2 -14 5 -8 7 -12 17 -9 22 5 8 23 -12 23 -27z m39 -120 c1 -4 -5 -2 -13 5 -7
7 -11 19 -8 27 4 11 7 10 13 -5 4 -10 8 -23 8 -27z"/>
<path d="M3760 3606 c0 -2 8 -10 18 -17 15 -13 16 -12 3 4 -13 16 -21 21 -21
13z"/>
<path d="M811 3413 c-53 -108 -65 -147 -51 -173 8 -15 8 -20 -2 -20 -22 -1 25
-23 62 -30 32 -6 35 -5 36 19 1 20 -7 30 -33 43 -32 15 -34 15 -28 0 5 -14 4
-14 -6 -5 -10 10 -9 16 3 30 23 25 60 123 47 120 -7 -1 -14 4 -17 12 -3 8 0
11 7 7 6 -4 11 -2 11 4 0 6 5 8 12 4 7 -4 8 -3 4 5 -4 6 -12 8 -18 5 -6 -4 -6
2 1 15 13 24 23 28 15 6 -4 -9 0 -15 10 -15 9 0 16 -6 17 -12 0 -7 38 -31 85
-54 60 -29 83 -36 79 -25 -5 14 -4 14 8 1 8 -8 17 -33 20 -55 6 -38 6 -39 -6
-13 -12 27 -14 24 -55 -85 -29 -76 -40 -120 -35 -136 4 -16 3 -22 -4 -18 -7 5
-9 -1 -6 -15 3 -17 2 -19 -5 -10 -7 11 -10 9 -15 -7 -3 -12 -1 -19 4 -15 5 3
9 1 9 -3 0 -16 -24 -33 -45 -33 -15 0 -17 2 -6 9 11 7 11 10 0 17 -7 4 -14 3
-17 -4 -2 -7 -8 -12 -13 -12 -6 0 -7 4 -4 10 3 5 -7 12 -22 16 -15 3 -45 10
-66 15 -20 6 -42 7 -48 3 -6 -4 -15 0 -20 7 -17 27 -34 -21 -53 -143 -20 -134
-18 -142 41 -134 17 2 36 -1 41 -6 6 -6 12 -5 17 3 5 8 4 10 -3 5 -7 -4 -12
-2 -12 3 0 6 5 11 12 11 9 0 9 3 0 12 -10 10 -14 10 -21 0 -6 -10 -14 -8 -34
8 -24 19 -26 20 -21 3 5 -17 5 -17 -6 0 -7 11 -9 30 -4 50 9 40 15 77 17 100
1 9 4 17 8 17 4 0 6 8 5 18 -1 19 28 19 99 0 22 -6 48 -10 58 -9 9 1 17 -3 17
-9 0 -7 8 -9 20 -5 28 9 39 -26 29 -100 -4 -33 -8 -108 -8 -167 -1 -60 -5
-108 -9 -108 -5 0 -20 -9 -33 -21 -22 -19 -34 -20 -136 -17 -61 2 -108 1 -105
-2 4 -3 7 -9 7 -15 0 -5 5 -53 10 -105 5 -52 8 -107 6 -122 -1 -14 3 -30 10
-34 8 -5 9 -3 4 6 -6 9 0 11 24 5 21 -4 31 -3 31 5 0 8 10 11 28 7 28 -6 31 0
23 43 -1 3 -6 -2 -11 -10 -6 -10 -10 -11 -10 -2 0 6 -4 12 -10 12 -5 0 -10 -7
-10 -15 0 -8 -9 -15 -20 -15 -11 0 -19 3 -19 8 3 19 -2 26 -10 13 -11 -17 -24
93 -19 154 3 37 5 40 31 37 16 -2 35 2 42 8 17 14 166 11 170 -4 4 -12 17
-168 17 -203 0 -13 4 -23 10 -23 5 0 6 -9 3 -20 -4 -12 -2 -20 5 -20 7 0 10
-7 7 -15 -4 -8 -2 -17 3 -20 15 -9 12 -59 -6 -81 -14 -18 -14 -18 -3 6 11 22
11 24 -3 12 -9 -7 -60 -27 -113 -45 -94 -32 -98 -34 -101 -64 -5 -47 61 -217
79 -206 6 4 8 0 4 -10 -7 -18 15 -17 55 3 22 11 22 10 4 -4 -11 -9 -23 -16
-28 -16 -4 0 -8 -5 -8 -10 0 -6 19 -1 42 11 27 14 37 24 29 29 -10 5 -9 11 3
23 16 15 12 25 -9 22 -26 -3 -55 -18 -55 -28 -1 -18 -37 51 -55 106 -9 26 -21
45 -26 41 -16 -10 -9 23 8 37 14 12 16 12 8 0 -6 -10 -4 -13 6 -9 81 32 98 42
93 50 -4 6 2 7 16 3 17 -5 21 -4 15 6 -6 9 -2 11 13 7 12 -4 20 -2 16 3 -3 5
6 9 20 9 15 0 30 -8 36 -19 13 -25 13 -34 0 -26 -6 4 1 -19 15 -51 14 -31 25
-58 25 -60 0 -2 3 -3 8 -3 20 3 33 -2 27 -11 -4 -6 -11 -8 -16 -4 -6 3 -3 -11
5 -31 9 -21 16 -40 16 -43 0 -3 7 3 16 14 8 10 13 13 9 7 -3 -7 -1 -13 5 -13
6 0 8 -5 4 -12 -5 -7 -3 -8 6 -3 10 6 12 4 7 -9 -4 -9 -3 -15 3 -11 5 3 9 -3
9 -12 0 -10 2 -34 6 -53 3 -19 2 -30 -2 -23 -6 8 -28 -1 -77 -32 -38 -25 -84
-54 -103 -65 -20 -12 -33 -24 -30 -27 4 -3 15 0 24 8 16 13 17 12 5 -3 -10
-13 -11 -22 -2 -38 6 -12 14 -19 17 -16 4 3 13 0 22 -7 12 -9 11 -7 -2 13 -22
32 -21 37 6 50 21 11 21 10 3 -4 -11 -9 -17 -18 -15 -21 3 -2 42 21 88 51 46
31 80 58 78 61 -3 2 -33 -14 -66 -36 -34 -23 -61 -39 -61 -37 0 3 18 18 40 32
22 15 37 30 35 35 -3 4 0 11 6 15 8 4 9 3 5 -4 -9 -15 -1 -15 24 1 17 10 22 9
30 -3 6 -9 10 -10 10 -3 0 6 9 10 20 8 14 -3 18 0 13 8 -4 7 -21 35 -39 62
-49 77 -98 180 -139 293 -21 56 -42 102 -47 102 -4 0 -8 5 -8 11 0 5 6 7 13 3
6 -4 4 2 -5 13 -10 11 -18 25 -18 31 0 7 -5 12 -11 12 -5 0 -8 4 -5 9 4 5 -1
56 -10 112 -20 123 -17 447 4 472 7 8 10 21 6 30 -3 8 0 18 5 22 6 3 9 11 5
16 -3 5 -1 16 5 23 7 8 11 18 10 22 -1 5 0 12 1 17 1 4 3 10 4 15 16 58 47
147 82 232 24 58 37 96 29 86 -26 -35 -16 -5 21 62 20 36 31 61 24 57 -8 -5
-11 -3 -8 6 3 8 10 13 16 12 6 -2 16 6 22 16 8 15 6 19 -5 17 -21 -3 -49 -45
-50 -76 0 -15 -6 -24 -14 -22 -8 1 -10 -2 -5 -10 4 -7 -1 -6 -12 3 -18 16
-217 119 -229 119 -2 0 -22 -35 -44 -77z m13 -29 c4 -9 2 -13 -5 -8 -7 4 -9 0
-5 -12 3 -11 2 -25 -3 -32 -14 -23 -22 15 -9 43 13 29 14 30 22 9z m183 2 c0
-8 -6 -12 -15 -9 -11 5 -11 7 0 14 7 5 13 9 14 9 0 0 1 -6 1 -14z m-213 -72
c3 -8 2 -12 -4 -9 -6 3 -10 1 -10 -6 0 -7 -2 -10 -5 -7 -5 5 4 38 10 38 2 0 6
-7 9 -16z m268 -76 c-6 -6 -12 -6 -17 3 -6 8 -4 10 5 4 9 -5 10 -1 6 16 -6 21
-6 22 5 6 7 -13 8 -22 1 -29z m-17 -18 c3 -5 1 -10 -4 -10 -6 0 -11 5 -11 10
0 6 2 10 4 10 3 0 8 -4 11 -10z m-7 -45 c-3 -3 -9 2 -12 12 -6 14 -5 15 5 6 7
-7 10 -15 7 -18z m-14 -11 c3 -8 2 -12 -4 -9 -6 3 -10 10 -10 16 0 14 7 11 14
-7z m-20 -50 c3 -8 2 -12 -4 -9 -6 3 -10 10 -10 16 0 14 7 11 14 -7z m-10 -29
c3 -8 1 -15 -4 -15 -6 0 -10 7 -10 15 0 8 2 15 4 15 2 0 6 -7 10 -15z m-147
-101 c-3 -3 -12 -4 -19 -1 -8 3 -5 6 6 6 11 1 17 -2 13 -5z m63 -434 c0 -5 -5
-10 -11 -10 -5 0 -7 5 -4 10 3 6 8 10 11 10 2 0 4 -4 4 -10z m115 -501 c-5
-15 -4 -19 4 -15 6 4 11 2 11 -3 0 -13 -17 -14 -24 -2 -4 5 -3 16 0 25 9 24
16 19 9 -5z m18 -54 c-3 -9 -8 -14 -10 -11 -3 3 -2 9 2 15 9 16 15 13 8 -4z
m23 -42 c-3 -4 -6 -1 -6 6 0 7 -4 9 -10 6 -6 -4 -7 1 -3 11 6 15 7 15 15 -1 6
-9 7 -19 4 -22z m-285 -26 c-10 -9 -11 -8 -5 6 3 10 9 15 12 12 3 -3 0 -11 -7
-18z m19 -17 c0 -5 -5 -10 -11 -10 -5 0 -7 5 -4 10 3 6 8 10 11 10 2 0 4 -4 4
-10z m283 -7 c-4 -11 -3 -14 5 -9 8 5 10 2 5 -10 -5 -15 -7 -15 -15 0 -5 9 -6
21 -3 26 10 16 15 12 8 -7z m-280 -30 c-4 -10 -2 -14 4 -10 6 4 13 1 16 -6 3
-8 -1 -14 -9 -14 -15 0 -27 24 -18 38 9 15 14 10 7 -8z m371 -103 c28 -43 35
-68 10 -35 -19 24 -46 75 -41 75 3 0 16 -18 31 -40z"/>
<path d="M4100 3361 c0 -6 4 -13 10 -16 6 -3 7 1 4 9 -7 18 -14 21 -14 7z"/>
<path d="M3301 3134 c0 -11 3 -14 6 -6 3 7 2 16 -1 19 -3 4 -6 -2 -5 -13z"/>
<path d="M4415 3040 c-3 -5 -3 -16 1 -22 5 -7 9 -19 9 -28 1 -8 9 -60 18 -115
9 -55 18 -113 20 -130 2 -16 5 -4 6 27 0 32 -8 103 -19 159 -11 56 -17 106
-14 110 3 5 1 9 -5 9 -5 0 -13 -4 -16 -10z"/>
<path d="M3236 2993 c-6 -14 -5 -15 5 -6 7 7 10 15 7 18 -3 3 -9 -2 -12 -12z"/>
<path d="M754 2865 c0 -15 5 -20 11 -14 12 12 58 12 50 -1 -4 -6 -3 -10 2 -9
20 3 27 -2 13 -11 -11 -7 -11 -10 -2 -10 10 0 12 -18 8 -77 l-5 -78 9 65 c5
36 12 79 15 97 5 31 4 32 -32 38 -21 3 -45 10 -54 15 -14 7 -17 4 -15 -15z"/>
<path d="M4190 2825 c-7 -9 -11 -17 -9 -19 11 -9 110 -12 116 -3 3 6 1 7 -5 3
-7 -4 -12 -2 -12 3 0 6 5 11 11 11 5 0 7 5 3 11 -5 8 -8 8 -13 0 -4 -6 -22
-14 -41 -17 -23 -5 -31 -4 -26 4 10 17 -11 23 -24 7z"/>
<path d="M4468 2618 l-3 -33 -132 -3 c-118 -2 -133 -5 -133 -20 0 -9 -5 -60
-10 -112 -6 -69 -6 -96 3 -102 12 -7 63 0 87 13 13 6 12 9 -4 15 -12 5 -21 3
-24 -4 -2 -7 -10 -12 -18 -12 -8 0 -11 6 -8 15 4 8 2 15 -4 15 -6 0 -13 -6
-15 -12 -3 -7 -6 19 -6 57 -1 43 5 81 14 98 8 15 10 25 5 22 -6 -4 -10 -1 -10
4 0 7 41 11 115 11 93 0 115 -3 115 -14 0 -8 4 -18 10 -21 6 -3 7 1 4 9 -3 9
-3 16 0 16 4 0 11 -10 16 -22 6 -17 9 -6 9 45 1 70 -5 90 -11 35z"/>
<path d="M3036 2583 c-6 -14 -5 -15 5 -6 7 7 10 15 7 18 -3 3 -9 -2 -12 -12z"/>
<path d="M562 2495 c-2 -63 19 -280 28 -305 1 -3 2 -13 1 -22 -1 -10 2 -18 6
-18 5 0 9 -8 9 -17 1 -38 15 -92 42 -173 29 -84 87 -215 76 -173 -2 12 0 24 5
28 7 4 8 -1 4 -11 -4 -12 -3 -15 5 -10 8 5 10 1 5 -10 -5 -13 -3 -15 7 -9 10
6 12 4 7 -8 -3 -10 -2 -17 4 -17 6 0 7 -4 4 -10 -3 -5 -1 -10 5 -10 6 0 8 -5
4 -12 -5 -7 -3 -8 6 -3 10 6 12 4 8 -7 -4 -8 4 -33 18 -54 19 -32 23 -35 24
-17 0 12 5 25 12 29 7 4 8 3 4 -4 -13 -21 5 -13 106 45 82 47 97 60 92 76 -4
13 -2 17 5 13 18 -12 12 5 -43 113 -37 72 -55 99 -59 88 -4 -10 -11 -17 -17
-17 -6 0 -8 5 -4 11 5 9 -1 10 -22 5 -32 -8 -68 -36 -46 -36 8 0 10 -5 6 -12
-5 -8 0 -7 11 2 15 12 17 12 10 1 -6 -11 -4 -13 9 -8 10 4 20 7 24 7 3 0 -2 6
-13 13 -16 13 -15 14 13 9 20 -3 29 -8 25 -16 -5 -8 -3 -8 8 1 11 9 17 4 31
-28 16 -39 8 -55 -11 -21 -18 29 -12 8 9 -36 11 -22 20 -46 20 -52 0 -5 4 -10
9 -10 12 0 21 -39 10 -46 -5 -3 -9 -2 -8 3 5 31 -2 34 -33 15 -18 -11 -61 -34
-95 -52 -34 -17 -63 -36 -65 -42 -4 -12 -79 152 -128 282 -31 81 -51 122 -35
71 6 -21 5 -22 -8 -10 -10 10 -12 19 -6 31 12 22 11 31 -1 23 -17 -11 -11 22
7 36 11 10 14 10 9 2 -9 -16 -4 -16 28 -2 14 7 23 16 19 22 -3 5 3 6 16 2 13
-4 21 -2 21 5 0 7 7 10 15 6 8 -3 15 -1 15 5 0 6 7 9 15 5 8 -3 15 -1 15 4 0
6 -7 10 -16 10 -8 0 -12 5 -9 10 3 6 1 10 -5 10 -6 0 -13 -7 -16 -15 -4 -8
-10 -15 -16 -15 -5 0 -6 5 -3 10 7 12 -12 12 -40 0 -14 -6 -16 -9 -5 -10 8 -1
-1 -6 -20 -11 -44 -11 -60 -5 -60 21 0 11 -5 20 -11 20 -5 0 -8 4 -4 9 3 5 -1
63 -10 128 -8 65 -16 141 -18 168 -3 49 -3 49 -5 -10z m109 -538 c-10 -9 -11
-8 -5 6 3 10 9 15 12 12 3 -3 0 -11 -7 -18z m25 -44 c-3 -4 -6 -1 -6 6 0 7 -4
9 -10 6 -11 -7 -14 8 -3 19 4 3 11 -1 16 -9 5 -9 6 -19 3 -22z m17 -60 c-3 -7
-6 -13 -8 -13 -2 0 -5 6 -8 13 -3 8 1 14 8 14 7 0 11 -6 8 -14z m8 -26 c-10
-9 -11 -8 -5 6 3 10 9 15 12 12 3 -3 0 -11 -7 -18z m275 -63 c-3 -21 -33 -39
-33 -20 0 8 7 12 14 9 8 -3 13 -2 12 3 -2 13 0 24 5 24 2 0 3 -7 2 -16z m-72
-36 c-5 -8 -2 -9 9 -5 23 9 21 0 -2 -13 -16 -8 -19 -7 -16 8 5 23 4 22 11 22
3 0 2 -5 -2 -12z"/>
<path d="M4460 2449 c0 -57 -42 -299 -51 -293 -11 7 -11 1 0 -29 7 -18 6 -24
-5 -24 -9 0 -13 6 -9 16 4 13 2 12 -9 -1 -14 -20 -32 -23 -38 -9 -1 5 -16 13
-32 17 -23 5 -27 4 -22 -7 5 -8 2 -8 -6 2 -13 16 -91 40 -125 38 -16 0 -16 -1
2 -10 18 -9 18 -9 -4 -5 -17 4 -25 -1 -28 -15 -5 -16 -8 -18 -15 -7 -6 9 -7 5
-3 -11 5 -16 4 -21 -4 -17 -14 9 -14 0 1 -27 10 -20 10 -21 -5 -8 -10 7 -17
11 -17 8 0 -4 -9 -29 -20 -57 -11 -28 -16 -49 -10 -45 13 8 13 -18 0 -31 -8
-8 -6 -15 4 -23 22 -19 79 -21 94 -5 11 12 8 17 -22 29 -43 18 -49 19 -40 3 4
-7 3 -8 -4 -4 -14 9 -16 33 -3 38 5 2 19 27 30 56 12 29 17 51 11 47 -16 -10
-11 11 8 36 14 16 24 20 38 14 10 -4 25 -7 32 -6 6 1 12 -3 12 -9 0 -7 8 -9
20 -5 12 4 20 2 20 -5 0 -7 8 -9 21 -5 14 5 19 4 15 -4 -4 -7 -1 -9 8 -5 8 3
23 1 33 -6 16 -9 15 -10 -7 -5 l-25 6 25 -15 c31 -19 43 -20 34 -3 -5 8 -4 9
4 2 16 -16 19 -60 3 -60 -7 0 -24 -29 -38 -65 -13 -36 -51 -121 -84 -189 -49
-101 -62 -121 -72 -109 -11 14 -174 108 -208 120 -9 4 -20 -2 -28 -14 -9 -15
-9 -18 0 -13 7 5 10 3 7 -6 -3 -8 -10 -14 -16 -14 -5 0 -13 -2 -16 -5 -3 -4 5
-6 19 -6 13 0 21 4 19 8 -3 4 2 8 10 8 9 0 15 -4 13 -9 -2 -8 155 -111 170
-111 3 0 -1 7 -8 17 -13 15 -12 15 9 2 12 -8 22 -23 22 -34 1 -20 1 -20 16 0
26 34 38 59 24 50 -8 -5 -11 -3 -8 6 3 8 10 13 16 12 6 -2 9 4 6 12 -4 10 0
13 15 10 14 -2 25 3 32 17 6 12 7 18 1 14 -5 -3 -13 1 -16 10 -4 10 -2 13 6 8
8 -5 9 -2 5 10 -4 11 -3 15 4 10 8 -4 9 1 4 17 -5 18 -4 21 4 9 6 -8 8 -24 6
-35 -3 -11 11 14 31 54 40 84 117 309 109 321 -3 5 -1 11 4 14 5 3 8 19 7 36
-1 16 2 30 7 30 5 0 7 9 4 20 -3 11 -1 23 5 26 5 3 7 13 4 21 -3 8 -3 19 0 25
8 13 17 198 10 198 -3 0 -6 -14 -6 -31z m-99 -486 c-12 -20 -14 -14 -5 12 4 9
9 14 11 11 3 -2 0 -13 -6 -23z m-226 -53 c-3 -5 -12 -10 -18 -10 -7 0 -6 4 3
10 19 12 23 12 15 0z m199 -36 c4 -10 2 -13 -6 -8 -8 5 -9 1 -4 -12 5 -14 4
-16 -4 -8 -6 6 -8 18 -4 27 8 21 10 21 18 1z m-25 -83 c-9 -26 -14 -30 -20
-18 -11 19 -1 49 14 40 7 -4 8 0 3 13 -5 13 -4 16 4 8 7 -7 7 -20 -1 -43z
m-249 -96 c0 -2 -7 -1 -17 2 -11 5 -14 3 -8 -6 6 -11 3 -11 -16 -1 -34 18 -38
24 -10 15 17 -5 21 -4 16 5 -6 9 -3 9 14 1 11 -7 21 -14 21 -16z m200 -8 c0
-7 -4 -6 -10 3 -8 12 -10 12 -10 1 0 -8 -3 -12 -6 -8 -9 9 6 28 17 22 5 -4 9
-12 9 -18z m-170 -33 c0 -2 -9 0 -20 6 -11 6 -20 13 -20 16 0 2 9 0 20 -6 11
-6 20 -13 20 -16z"/>
<path d="M820 2428 c0 -7 -16 -9 -42 -5 -23 3 -36 2 -29 -2 9 -6 10 -11 2 -15
-6 -4 -11 -13 -11 -19 0 -9 2 -9 8 0 9 14 78 21 89 9 5 -5 2 -6 -7 -1 -12 7
-13 6 -3 -7 7 -8 10 -18 6 -21 -3 -4 0 -13 6 -21 7 -8 10 -20 6 -26 -4 -6 -2
-16 3 -23 12 -15 19 -83 9 -93 -4 -4 -7 -3 -7 3 0 6 -11 8 -25 5 -28 -5 -30
-10 -11 -35 14 -19 33 -7 21 13 -3 6 1 7 9 4 9 -3 14 -10 11 -14 -3 -5 3 -6
14 -3 16 4 17 10 10 45 -5 22 -9 45 -8 51 1 7 -1 19 -4 27 -14 34 -24 120 -14
120 15 0 -1 13 -18 16 -8 1 -15 -2 -15 -8z"/>
<path d="M620 2175 c0 -8 4 -15 10 -15 5 0 7 7 4 15 -4 8 -8 15 -10 15 -2 0
-4 -7 -4 -15z"/>
<path d="M4127 2163 c-4 -3 -7 -11 -7 -17 0 -6 5 -5 12 2 6 6 9 14 7 17 -3 3
-9 2 -12 -2z"/>
<path d="M3889 1673 c-13 -16 -12 -17 4 -4 16 13 21 21 13 21 -2 0 -10 -8 -17
-17z"/>
<path d="M3799 1663 c-13 -16 -12 -17 4 -4 9 7 17 15 17 17 0 8 -8 3 -21 -13z"/>
<path d="M836 1614 c-4 -10 -4 -15 0 -11 10 9 45 -44 37 -56 -3 -6 -1 -7 5 -3
9 5 8 14 -3 34 -28 52 -32 55 -39 36z"/>
<path d="M1111 1598 c-36 -26 -40 -33 -26 -40 17 -10 49 8 40 22 -3 5 -1 11 4
14 16 10 6 -22 -14 -44 -10 -11 -14 -20 -8 -20 13 0 43 33 43 48 0 7 4 12 8
12 4 0 8 9 9 20 2 27 -6 25 -56 -12z"/>
<path d="M3759 1613 c-13 -16 -12 -17 4 -4 16 13 21 21 13 21 -2 0 -10 -8 -17
-17z"/>
<path d="M3964 1618 c-3 -5 2 -18 12 -29 17 -19 17 -20 -2 -14 -19 7 -19 6 0
-9 16 -13 22 -13 29 -3 6 8 7 7 4 -4 -3 -9 0 -22 6 -29 9 -10 9 -11 0 -6 -15
8 -28 -13 -15 -26 12 -12 56 47 47 64 -4 7 1 4 9 -6 9 -11 16 -14 16 -7 0 16
-57 68 -81 74 -11 3 -22 1 -25 -5z"/>
<path d="M1288 1591 c18 -17 30 -31 26 -31 -3 0 17 -25 45 -56 44 -47 51 -61
47 -86 -5 -32 -34 -71 -46 -63 -4 3 -13 -2 -20 -10 -7 -8 -9 -15 -4 -15 4 0
-12 -20 -36 -45 -24 -24 -45 -51 -46 -59 -1 -8 10 -25 25 -38 14 -13 23 -19
19 -14 -4 5 0 22 8 38 9 17 11 27 5 24 -28 -18 -5 20 55 89 79 90 95 101 118
76 23 -25 20 -38 -4 -16 -11 10 -20 14 -20 8 0 -20 253 -203 281 -203 5 0 7 6
5 13 -1 6 -1 9 1 4 3 -4 9 -5 14 -2 13 9 2 -16 -48 -108 -47 -88 -75 -147 -68
-147 3 0 29 48 59 108 30 59 55 104 55 99 1 -4 -22 -53 -50 -109 -40 -80 -48
-103 -37 -110 10 -7 9 -8 -4 -4 -10 3 -18 2 -18 -2 0 -4 31 -20 68 -36 37 -15
89 -38 116 -49 47 -21 48 -21 62 -2 10 14 14 15 15 4 1 -19 28 41 29 64 0 10
-7 17 -20 17 -14 0 -18 5 -14 18 3 9 -4 1 -14 -18 -15 -25 -17 -37 -9 -42 11
-7 2 -12 -15 -9 -5 0 -7 -3 -5 -8 3 -13 -13 -13 -50 0 -18 6 -33 15 -33 20 0
5 14 2 31 -6 17 -9 33 -14 37 -11 3 3 3 7 1 9 -56 33 -147 74 -143 63 3 -8 2
-16 -3 -19 -17 -10 -9 37 9 55 10 10 18 24 18 31 -1 6 -7 1 -15 -13 -19 -33
-19 -19 0 26 8 20 19 33 24 30 5 -4 13 -1 17 5 4 8 3 9 -4 5 -33 -20 23 80 57
103 22 14 23 14 17 -5 -5 -17 4 -23 64 -46 39 -14 70 -23 70 -19 0 3 -27 17
-60 29 -33 13 -60 28 -60 32 0 5 26 -3 58 -17 31 -14 89 -36 127 -49 39 -12
69 -28 68 -33 -2 -6 4 -11 13 -11 9 0 12 5 8 11 -4 7 -1 10 7 7 8 -3 13 -10
12 -16 -1 -5 4 -16 12 -22 8 -7 15 -24 15 -39 0 -20 -2 -23 -10 -11 -7 11 -8
5 -4 -20 4 -28 3 -32 -6 -20 -9 12 -10 11 -5 -7 3 -11 1 -41 -4 -65 -21 -93
-22 -111 -7 -99 11 9 20 9 34 2 31 -17 47 10 21 33 -20 17 -21 17 -15 -6 6
-22 6 -23 -5 -2 -9 17 -6 40 11 105 12 46 21 94 21 107 0 12 4 22 10 22 5 0 7
-6 3 -12 -4 -7 3 -3 15 9 25 26 26 33 5 33 -8 0 -12 -4 -9 -10 3 -5 1 -10 -4
-10 -6 0 -11 7 -11 15 0 8 -7 15 -16 15 -8 0 -13 -3 -11 -7 3 -5 -2 -14 -10
-22 -13 -11 -14 -10 -11 9 2 17 -3 25 -22 31 -198 59 -333 117 -450 192 -81
51 -232 172 -284 226 -22 22 -43 38 -46 36 -8 -5 -28 15 -29 28 0 4 -15 19
-33 34 l-33 25 33 -31z m122 -116 c30 -30 52 -55 49 -55 -2 0 -29 25 -59 55
-30 30 -52 55 -49 55 2 0 29 -25 59 -55z m161 -148 c9 3 34 -26 28 -32 -8 -8
-98 69 -92 78 3 6 18 -3 31 -19 14 -16 29 -28 33 -27z m65 -50 c16 -1 94 -52
94 -60 0 -8 -28 7 -97 51 -13 8 -23 19 -23 26 0 7 4 6 9 -2 4 -8 12 -14 17
-15z m-355 -74 c13 -16 12 -17 -3 -4 -10 7 -18 15 -18 17 0 8 8 3 21 -13z
m483 -312 c-4 -3 -9 0 -11 7 -3 6 -10 9 -15 6 -7 -4 -8 -2 -4 5 6 9 11 9 22 0
8 -6 12 -15 8 -18z"/>
<path d="M3836 1595 c-20 -30 -21 -46 -1 -19 13 18 14 16 10 -17 -4 -30 0 -40
18 -51 19 -13 24 -12 39 3 18 19 6 39 -24 39 -20 0 -25 26 -5 33 7 3 5 6 -5 6
-10 1 -18 6 -18 12 0 5 5 7 12 3 7 -4 8 -3 4 4 -10 16 -11 16 -30 -13z m59
-64 c3 -5 2 -12 -3 -15 -5 -3 -9 1 -9 9 0 17 3 19 12 6z"/>
<path d="M3706 1551 c-16 -16 -25 -34 -22 -39 4 -6 2 -14 -4 -17 -6 -4 -9 -2
-8 3 7 25 -16 11 -111 -68 -57 -47 -130 -104 -163 -127 -117 -81 -319 -175
-455 -209 -75 -19 -102 -40 -35 -28 40 8 46 8 77 0 11 -2 22 -5 25 -5 3 -1 -1
-5 -7 -9 -10 -6 -9 -21 6 -68 11 -32 27 -86 36 -118 10 -37 20 -55 24 -47 5 7
18 10 33 6 15 -4 29 -2 32 4 4 6 16 11 27 11 10 0 19 4 19 10 0 5 -8 7 -17 3
-28 -9 -3 11 30 25 15 6 27 8 27 3 0 -5 -6 -11 -12 -14 -7 -2 -11 -6 -8 -9 3
-3 33 6 66 19 43 17 64 30 67 45 6 23 -15 72 -35 84 -10 6 -11 4 0 -7 6 -7 12
-17 12 -23 0 -5 -6 -1 -14 9 -8 11 -11 26 -8 33 3 9 0 13 -8 10 -21 -7 -24
-63 -5 -82 9 -9 14 -20 11 -25 -4 -5 -3 -11 1 -14 5 -2 3 -2 -4 -1 -6 2 -14
-2 -17 -9 -3 -7 -3 -2 0 10 5 21 4 21 -63 -7 -50 -21 -67 -34 -65 -46 2 -10
-2 -14 -10 -11 -7 2 -12 10 -11 16 2 6 -5 11 -15 11 -10 0 -13 3 -6 8 7 5 1
30 -17 76 -16 42 -29 63 -33 55 -3 -8 -4 -2 -2 13 1 15 -1 25 -5 22 -10 -6
-12 27 -3 50 3 9 10 13 15 10 5 -3 7 -10 4 -15 -9 -14 -4 -12 112 40 139 64
227 113 193 109 -14 -2 -29 -7 -33 -13 -5 -6 -7 -4 -4 5 2 8 10 14 16 12 6 -1
11 2 11 7 0 21 39 -4 58 -37 12 -20 41 -68 66 -107 26 -38 44 -75 41 -82 -2
-8 2 -10 13 -6 26 9 217 153 203 153 -7 0 -9 4 -6 10 3 5 -5 25 -19 43 -15 19
-26 39 -26 45 0 15 -17 16 -26 1 -3 -6 5 -23 19 -37 13 -15 27 -37 30 -49 5
-23 -14 -48 -28 -35 -5 4 -5 2 -2 -4 7 -11 -19 -29 -36 -25 -5 1 -6 -2 -4 -6
3 -5 -21 -26 -52 -47 -31 -21 -51 -34 -45 -27 8 9 4 20 -18 43 -20 21 -27 37
-23 52 5 15 4 17 -3 7 -7 -10 -17 -3 -41 32 -34 51 -40 67 -14 46 15 -13 15
-12 2 8 -9 16 -16 19 -21 10 -7 -10 -8 -3 -8 48 0 3 2 4 5 3 2 -2 11 6 19 17
8 11 18 20 23 20 4 1 28 20 52 42 25 23 49 39 54 36 9 -5 -51 -59 -63 -57 -3
1 -11 -7 -18 -18 -7 -10 -16 -16 -20 -14 -4 2 -15 -7 -25 -20 -28 -38 -10 -28
66 34 113 91 202 176 199 186 -2 5 4 4 12 -4 18 -14 22 -25 6 -15 -20 12 -9
-2 22 -31 32 -28 32 -28 9 -1 -36 40 -11 33 29 -8 20 -21 28 -35 20 -35 -8 0
7 -19 34 -43 46 -42 79 -56 74 -32 -2 6 12 31 31 55 18 25 22 33 8 18 -24 -26
-25 -26 -55 -10 -17 9 -62 46 -101 82 -53 49 -67 67 -59 77 20 24 2 13 -26
-16z m34 -36 c14 -19 14 -19 -2 -6 -10 7 -18 18 -18 24 0 6 1 8 3 6 1 -2 9
-13 17 -24z m-73 -21 c0 -15 -78 -88 -91 -85 -10 2 -7 16 3 16 6 0 26 19 46
43 20 23 38 42 39 42 2 0 3 -7 3 -16z m139 -36 l29 -33 -32 29 c-31 28 -38 36
-30 36 2 0 16 -15 33 -32z m64 -53 c13 -14 21 -25 18 -25 -2 0 -15 11 -28 25
-13 14 -21 25 -18 25 2 0 15 -11 28 -25z m15 -49 c6 -4 1 -4 -10 2 -11 6 -31
23 -45 39 l-25 28 35 -30 c19 -16 40 -34 45 -39z m-610 -159 c-31 -19 -120
-58 -111 -50 13 14 121 69 126 65 3 -2 -4 -9 -15 -15z m-145 -66 c0 -5 -7 -12
-16 -15 -21 -8 -24 -8 -24 5 0 5 5 7 10 4 6 -3 10 -1 10 4 0 6 5 11 10 11 6 0
10 -4 10 -9z m-40 -240 c-1 -13 -29 45 -29 59 0 8 6 0 14 -19 8 -18 15 -36 15
-40z m155 -1 c3 -5 1 -10 -4 -10 -6 0 -11 5 -11 10 0 6 2 10 4 10 3 0 8 -4 11
-10z"/>
<path d="M3639 1473 c-13 -16 -12 -17 4 -4 16 13 21 21 13 21 -2 0 -10 -8 -17
-17z"/>
<path d="M4147 1567 c-3 -8 1 -14 8 -14 7 0 11 6 8 14 -3 7 -6 13 -8 13 -2 0
-5 -6 -8 -13z"/>
<path d="M1000 1516 c0 -2 8 -10 18 -17 15 -13 16 -12 3 4 -13 16 -21 21 -21
13z"/>
<path d="M1062 1439 c21 -26 34 -49 31 -53 -4 -3 3 -6 14 -6 11 0 26 7 33 15
13 15 2 21 -16 8 -5 -5 7 9 27 29 20 20 34 39 31 42 -12 13 -41 5 -66 -19 -14
-13 -26 -20 -26 -15 0 6 -5 10 -12 10 -6 0 -21 8 -32 18 -11 9 -4 -4 16 -29z"/>
<path d="M3979 1463 c-13 -16 -12 -17 4 -4 9 7 17 15 17 17 0 8 -8 3 -21 -13z"/>
<path d="M1277 1440 c2 -18 1 -30 -4 -27 -5 3 -43 -21 -84 -54 -53 -43 -80
-59 -97 -56 -16 3 -20 1 -12 -8 5 -6 8 -14 5 -17 -3 -2 10 -19 29 -37 33 -32
33 -32 29 -7 -4 20 10 40 81 114 84 87 85 89 67 106 -19 17 -19 17 -14 -14z
m-7 -33 c0 -2 -15 -16 -32 -33 l-33 -29 29 33 c28 30 36 37 36 29z m-80 -71
c0 -2 -8 -10 -17 -17 -16 -13 -17 -12 -4 4 13 16 21 21 21 13z"/>
<path d="M4059 1413 c-13 -16 -12 -17 4 -4 16 13 21 21 13 21 -2 0 -10 -8 -17
-17z"/>
<path d="M3600 1344 c-47 -41 -84 -78 -82 -82 2 -4 13 -23 24 -42 12 -19 22
-38 22 -42 1 -5 4 -8 9 -8 4 0 10 0 13 0 4 0 -6 16 -21 36 -22 29 -25 38 -14
45 13 8 5 13 -16 9 -12 -2 -10 1 84 81 41 35 71 58 67 51 -4 -7 -2 -12 4 -12
6 0 8 -5 4 -12 -4 -6 -3 -8 4 -4 13 8 145 -136 154 -170 6 -22 -2 -32 -68 -87
-42 -34 -80 -61 -85 -59 -6 1 -8 -1 -5 -6 2 -4 -4 -13 -15 -20 -10 -7 -19 -8
-19 -4 0 14 36 43 43 35 4 -3 7 -2 7 4 0 5 29 33 65 61 36 29 65 58 65 65 0 8
-3 9 -8 1 -11 -16 -209 -166 -272 -206 -31 -20 -64 -37 -75 -40 -19 -4 -19 -4
1 -10 15 -4 42 9 92 44 40 27 72 44 72 39 0 -5 -28 -27 -62 -49 -68 -42 -117
-69 -107 -58 4 4 -3 17 -15 29 -12 12 -43 61 -69 109 -26 47 -52 89 -57 91 -6
3 -5 4 2 3 7 -1 34 -40 60 -85 25 -46 52 -88 59 -95 15 -14 14 -12 -51 102
-34 59 -59 92 -69 92 -10 0 -66 -22 -127 -50 -60 -27 -104 -50 -97 -50 6 0 9
-8 7 -18 -5 -16 21 -92 31 -92 2 0 2 7 -1 15 -4 11 -2 13 9 9 21 -8 29 10 18
38 -9 21 -10 21 -12 3 -1 -11 -5 -4 -8 15 -8 40 -4 51 9 30 7 -12 19 -9 69 15
56 26 84 52 44 39 -15 -5 -16 -4 -3 5 19 14 53 14 45 1 -4 -6 -1 -9 6 -8 8 2
30 -28 51 -67 40 -74 48 -101 22 -69 -9 10 -6 1 6 -21 20 -37 21 -40 4 -52
-26 -19 -248 -111 -315 -131 -74 -22 -79 -33 -16 -37 20 -1 27 2 23 11 -3 8 0
14 7 14 7 0 61 20 121 45 61 24 111 43 113 41 5 -4 -159 -74 -193 -82 -13 -3
-24 -10 -24 -15 0 -13 154 46 275 105 61 30 151 81 200 113 109 72 278 215
265 223 -6 4 3 20 20 36 29 29 43 57 17 35 -10 -8 -19 -7 -33 4 -26 20 -39 19
-23 -2 7 -10 -4 -2 -24 16 -20 19 -37 37 -37 40 0 2 12 -6 26 -20 15 -13 25
-19 23 -13 -4 11 -144 144 -150 143 -2 0 -42 -34 -89 -75z m155 6 c21 -22 37
-40 34 -40 -3 0 -23 18 -44 40 -21 22 -37 40 -34 40 3 0 23 -18 44 -40z m-505
-260 c-33 -23 -50 -30 -50 -22 0 5 10 14 23 20 28 14 47 15 27 2z m200 -206
c0 -5 -57 -34 -66 -34 -3 0 4 8 16 18 20 16 50 25 50 16z"/>
<path d="M3618 1319 l-53 -51 52 42 c50 40 70 60 59 60 -2 0 -29 -23 -58 -51z"/>
<path d="M1455 1300 c-3 -5 -3 -10 0 -10 4 0 -3 -14 -15 -30 -12 -17 -25 -28
-30 -25 -5 3 -11 1 -15 -5 -3 -5 -1 -10 5 -10 6 0 9 -4 6 -9 -4 -5 1 -8 9 -7
19 3 32 16 15 16 -9 0 -5 9 9 24 l23 24 67 -49 c68 -49 94 -62 71 -34 -15 18
1 20 18 3 14 -14 16 -52 3 -43 -9 5 -111 -154 -111 -171 1 -5 8 4 16 19 9 16
18 26 21 24 8 -8 -25 -50 -40 -53 -16 -2 -158 99 -267 190 -39 32 -72 57 -75
55 -10 -11 286 -247 328 -262 7 -2 9 -7 6 -11 -6 -6 -152 90 -224 149 -25 21
-48 35 -51 33 -8 -8 178 -146 279 -207 129 -78 397 -195 397 -173 0 4 -34 20
-75 35 -78 29 -315 143 -315 151 0 3 7 3 15 0 8 -4 15 -2 16 2 0 5 2 18 3 29
2 11 26 60 54 109 28 49 49 93 46 97 -3 5 3 6 13 3 23 -7 6 7 -104 87 -87 63
-89 64 -98 49z m130 -98 c-5 -5 -115 75 -115 84 0 2 27 -14 60 -37 33 -24 58
-45 55 -47z m4 -126 c-18 -30 -35 -54 -36 -52 -2 2 11 28 29 59 18 30 35 54
36 52 2 -2 -11 -28 -29 -59z"/>
<path d="M3736 1207 c3 -10 9 -15 12 -12 3 3 0 11 -7 18 -10 9 -11 8 -5 -6z"/>
<path d="M1310 1202 c0 -11 29 -49 30 -38 0 5 7 3 15 -4 8 -7 12 -17 9 -22 -3
-5 -14 -2 -25 8 -11 9 -22 15 -25 12 -6 -7 131 -108 148 -108 6 0 3 7 -8 15
-14 11 -14 13 -3 9 12 -3 24 6 39 30 12 20 25 34 30 31 5 -3 7 3 6 12 -2 10
-11 19 -22 20 -10 2 -14 0 -7 -3 8 -3 -2 -20 -29 -47 -36 -37 -42 -39 -53 -24
-6 9 -14 14 -17 12 -3 -3 -11 1 -17 9 -7 9 -8 17 -2 20 5 3 18 -5 28 -18 11
-13 24 -21 30 -18 6 4 -19 30 -58 59 -38 29 -69 49 -69 45z"/>
<path d="M1150 1187 c0 -2 15 -16 33 -33 l32 -29 -29 33 c-28 30 -36 37 -36
29z"/>
<path d="M3620 1134 c-25 -20 -52 -40 -60 -44 -11 -7 -12 -12 -3 -20 8 -9 14
-7 23 10 6 12 14 19 17 16 3 -3 14 5 24 17 10 12 18 18 19 12 0 -5 7 1 16 13
8 12 19 20 24 17 5 -3 11 -1 15 5 14 23 -33 6 -75 -26z"/>
<path d="M1650 1139 c0 -5 5 -7 10 -4 6 3 10 8 10 11 0 2 -4 4 -10 4 -5 0 -10
-5 -10 -11z"/>
<path d="M1975 1090 c3 -5 8 -10 11 -10 2 0 4 5 4 10 0 6 -5 10 -11 10 -5 0
-7 -4 -4 -10z"/>
<path d="M2010 1082 c8 -5 26 -13 40 -16 17 -5 20 -4 10 2 -8 5 -26 13 -40 16
-17 5 -20 4 -10 -2z"/>
<path d="M1830 1071 c0 -5 6 -11 13 -14 6 -2 4 -3 -6 -1 -17 2 -54 -52 -43
-64 3 -3 6 -2 6 2 0 4 8 0 17 -10 16 -15 17 -15 23 2 4 10 1 24 -7 32 -7 7
-13 16 -13 19 0 4 3 4 6 1 3 -4 18 -3 32 1 17 5 39 3 57 -5 17 -7 23 -13 15
-14 -16 -1 30 -23 71 -34 l24 -7 -25 15 c-28 17 -19 22 11 6 11 -6 19 -21 19
-35 0 -42 -24 -115 -37 -115 -7 0 -13 -10 -12 -22 0 -22 1 -22 10 -3 7 16 8
14 3 -10 -8 -41 -26 -78 -41 -83 -7 -2 -13 3 -13 10 0 9 -47 33 -122 63 -68
27 -156 66 -195 87 -40 20 -73 33 -73 27 0 -12 216 -116 311 -150 51 -17 65
-27 61 -39 -3 -8 -2 -12 2 -8 5 4 19 3 32 -2 30 -12 55 -3 47 17 -3 8 -1 18 4
22 11 6 64 181 67 215 1 15 -19 26 -99 56 -136 50 -145 53 -145 41z"/>
<path d="M2830 1061 c0 -4 -12 -6 -26 -3 -20 3 -25 2 -19 -7 4 -7 13 -10 20
-7 7 2 18 0 24 -5 6 -5 9 -6 6 -3 -3 4 3 13 13 20 16 13 16 13 0 14 -10 0 -18
-4 -18 -9z"/>
<path d="M2265 1040 c3 -5 8 -10 11 -10 2 0 4 5 4 10 0 6 -5 10 -11 10 -5 0
-7 -4 -4 -10z"/>
<path d="M2740 1039 c0 -5 5 -7 10 -4 6 3 10 8 10 11 0 2 -4 4 -10 4 -5 0 -10
-5 -10 -11z"/>
<path d="M2687 1033 c-10 -10 -8 -23 4 -23 5 0 8 4 5 9 -4 5 0 12 6 14 7 3 8
6 2 6 -6 1 -14 -2 -17 -6z"/>
<path d="M1890 1019 c0 -5 5 -7 10 -4 6 3 10 8 10 11 0 2 -4 4 -10 4 -5 0 -10
-5 -10 -11z"/>
<path d="M2328 1013 c6 -2 18 -2 25 0 6 3 1 5 -13 5 -14 0 -19 -2 -12 -5z"/>
<path d="M2562 996 c9 -10 15 -11 20 -2 4 6 8 -54 8 -134 0 -87 4 -139 9 -131
5 7 13 11 18 8 5 -3 29 0 54 8 44 14 44 14 12 16 -18 1 -39 2 -45 3 -9 1 -16
38 -22 124 l-9 122 -29 0 c-24 0 -27 -2 -16 -14z"/>
<path d="M2835 970 c-3 -5 -2 -10 4 -10 5 0 13 5 16 10 3 6 2 10 -4 10 -5 0
-13 -4 -16 -10z"/>
<path d="M2920 971 c-8 -3 -16 -12 -18 -19 -1 -8 2 -11 7 -8 5 3 12 -1 15 -10
4 -10 2 -13 -6 -8 -8 5 -9 1 -4 -12 18 -45 35 -108 30 -115 -2 -4 0 -10 6 -14
6 -4 8 -10 5 -15 -3 -5 0 -18 7 -29 10 -17 10 -23 0 -33 -11 -11 -12 -10 -7 4
5 13 2 15 -14 11 -12 -3 -21 -9 -21 -13 0 -14 32 -21 46 -9 7 6 23 8 35 4 14
-5 19 -3 15 3 -3 6 -2 13 4 17 16 10 12 26 -6 23 -10 -2 -19 4 -21 12 -4 13
-3 13 6 0 10 -13 11 -13 10 0 0 8 -4 24 -9 35 l-9 20 -1 -20 c-1 -11 -8 0 -15
25 -8 25 -12 53 -9 64 4 10 2 16 -3 13 -6 -4 -15 10 -21 30 -14 45 -8 56 6 14
6 -17 13 -31 16 -31 7 0 -14 59 -22 64 -4 2 -14 1 -22 -3z"/>
<path d="M2780 961 c0 -5 7 -11 14 -14 10 -4 13 -1 9 9 -6 15 -23 19 -23 5z"/>
<path d="M2730 950 c0 -5 7 -10 15 -10 8 0 15 5 15 10 0 6 -7 10 -15 10 -8 0
-15 -4 -15 -10z"/>
<path d="M2247 943 c-8 -16 6 -93 17 -93 11 0 15 15 16 63 1 10 6 15 12 11 7
-4 8 -2 4 4 -5 9 -13 9 -26 2 -16 -8 -18 -8 -14 5 6 15 -1 21 -9 8z"/>
<path d="M2485 930 c3 -5 10 -10 16 -10 5 0 9 5 9 10 0 6 -7 10 -16 10 -8 0
-12 -4 -9 -10z"/>
<path d="M2703 894 c10 -62 27 -63 19 -1 -2 20 -9 37 -14 37 -7 0 -8 -14 -5
-36z"/>
<path d="M2458 900 c22 -18 22 -23 16 -127 -5 -81 -10 -111 -22 -120 -14 -11
-13 -13 9 -13 28 1 65 25 50 34 -5 3 -11 0 -14 -6 -2 -7 -4 44 -4 115 0 126
-5 155 -23 127 -7 -10 -10 -11 -10 -2 0 6 -6 12 -12 12 -7 -1 -3 -9 10 -20z"/>
<path d="M2810 878 c11 -62 29 -112 42 -114 13 -1 14 4 6 38 -5 22 -6 49 -3
59 4 11 2 19 -5 19 -6 0 -8 -6 -4 -12 6 -10 4 -10 -7 0 -11 10 -30 17 -29 10z"/>
<path d="M2346 844 c-3 -8 -2 -13 3 -10 5 3 6 -14 4 -38 -4 -36 -2 -44 14 -48
16 -4 18 0 15 31 -7 77 -21 103 -36 65z"/>
<path d="M2380 850 c0 -5 5 -10 11 -10 5 0 7 5 4 10 -3 6 -8 10 -11 10 -2 0
-4 -4 -4 -10z"/>
<path d="M2805 780 c-3 -5 -1 -10 4 -10 6 0 11 5 11 10 0 6 -2 10 -4 10 -3 0
-8 -4 -11 -10z"/>
<path d="M2290 770 c0 -5 5 -10 10 -10 6 0 10 5 10 10 0 6 -4 10 -10 10 -5 0
-10 -4 -10 -10z"/>
<path d="M1957 763 c-4 -3 -7 -11 -7 -17 0 -6 5 -5 12 2 6 6 9 14 7 17 -3 3
-9 2 -12 -2z"/>
<path d="M2020 729 c0 -5 5 -9 11 -9 5 0 8 -4 5 -9 -3 -4 7 -6 22 -4 21 4 24
2 12 -6 -18 -13 -1 -14 20 -1 18 11 15 13 -32 27 -22 6 -38 7 -38 2z"/>
<path d="M2125 700 c3 -5 1 -10 -6 -10 -7 0 -10 -2 -7 -5 7 -8 38 5 38 16 0 5
-7 9 -16 9 -8 0 -12 -4 -9 -10z"/>
<path d="M2882 698 c6 -18 25 -21 25 -3 0 8 -7 15 -14 15 -8 0 -13 -5 -11 -12z"/>
<path d="M2185 690 c4 -6 11 -8 16 -5 14 9 11 15 -7 15 -8 0 -12 -5 -9 -10z"/>
<path d="M2820 690 c0 -5 4 -10 9 -10 6 0 13 5 16 10 3 6 -1 10 -9 10 -9 0
-16 -4 -16 -10z"/>
<path d="M2535 650 c-4 -6 6 -10 22 -10 22 0 25 2 13 10 -19 12 -27 12 -35 0z"/>
</g>
</svg>
